<?xml version="1.0" encoding="UTF-8"?>
<svg xmlns="http://www.w3.org/2000/svg" xmlns:xlink="http://www.w3.org/1999/xlink" width="375pt" height="374.999991pt" viewBox="0 0 375 374.999991" version="1.2">
<g id="surface1">
<rect x="0" y="0" width="375" height="374.999991" style="fill:rgb(100%,100%,100%);fill-opacity:1;stroke:none;"/>
<rect x="0" y="0" width="375" height="374.999991" style="fill:rgb(100%,100%,100%);fill-opacity:1;stroke:none;"/>
<path style=" stroke:none;fill-rule:nonzero;fill:rgb(0%,0%,0%);fill-opacity:1;" d="M 256.515625 113.878906 L 113.878906 113.878906 L 113.878906 260.878906 L 260.878906 260.878906 L 260.878906 113.878906 Z M 256.515625 256.515625 L 118.289062 256.515625 L 118.289062 118.289062 L 256.515625 118.289062 Z M 256.515625 256.515625 "/>
<path style="fill:none;stroke-width:2.097459;stroke-linecap:butt;stroke-linejoin:miter;stroke:rgb(32.939148%,32.939148%,32.939148%);stroke-opacity:1;stroke-miterlimit:4;" d="M 22.187899 43.399391 C 30.78165 43.399391 37.292067 37.498349 37.292067 28.003557 C 37.292067 18.529598 30.78165 12.623347 22.187899 12.623347 C 13.578524 12.623347 7.062898 18.529598 7.062898 28.003557 C 7.062898 37.498349 13.578524 43.399391 22.187899 43.399391 Z M 22.187899 38.737932 C 16.516024 38.737932 12.083732 34.80564 12.083732 28.003557 C 12.083732 21.258765 16.516024 17.310848 22.187899 17.310848 C 27.859775 17.310848 32.292067 21.258765 32.292067 28.003557 C 32.292067 34.80564 27.859775 38.737932 22.187899 38.737932 Z M 48.906651 38.503557 L 48.906651 13.045222 L 43.885817 13.045222 L 43.885817 42.998349 L 58.802485 42.998349 L 58.802485 38.503557 Z M 77.266028 43.399391 C 85.85457 43.399391 92.370196 37.498349 92.370196 28.003557 C 92.370196 18.529598 85.85457 12.623347 77.266028 12.623347 C 68.651444 12.623347 62.141027 18.529598 62.141027 28.003557 C 62.141027 37.498349 68.651444 43.399391 77.266028 43.399391 Z M 77.266028 38.737932 C 71.594153 38.737932 67.161861 34.80564 67.161861 28.003557 C 67.161861 21.258765 71.594153 17.310848 77.266028 17.310848 C 82.937903 17.310848 87.370195 21.258765 87.370195 28.003557 C 87.370195 34.80564 82.937903 38.737932 77.266028 38.737932 Z M 114.989989 42.998349 L 120.891031 42.998349 L 113.26603 31.258765 C 114.401447 30.941057 115.349364 30.46189 116.146239 29.852515 C 118.562906 28.191057 119.651447 25.352515 119.651447 21.951473 C 119.651447 18.550431 118.521239 16.050431 116.042072 14.602514 C 114.338947 13.550431 111.98478 13.045222 108.500405 13.045222 L 98.963946 13.045222 L 98.963946 42.998349 L 103.98478 42.998349 L 103.98478 31.826474 L 108.354572 31.826474 Z M 103.98478 17.290014 L 107.82853 17.290014 C 110.219155 17.290014 111.92228 17.498348 113.099364 18.425431 C 114.000405 19.138973 114.54728 20.357723 114.54728 22.227515 C 114.54728 24.138973 114.04728 25.378556 113.161864 26.196265 C 112.026447 27.24314 110.286863 27.540015 107.82853 27.540015 L 103.98478 27.540015 Z M 127.781656 10.08168 L 131.120198 10.08168 L 125.724364 2.795222 L 123.057698 4.76918 Z M 126.963948 42.998349 L 131.984781 42.998349 L 131.984781 13.045222 L 126.963948 13.045222 Z M 126.963948 42.998349 " transform="matrix(0.75,0,0,0.75,146.237983,166.247334)"/>
<path style="fill:none;stroke-width:2.097459;stroke-linecap:butt;stroke-linejoin:miter;stroke:rgb(32.939148%,32.939148%,32.939148%);stroke-opacity:1;stroke-miterlimit:4;" d="M 23.104566 66.081684 L 17.708732 58.795225 L 15.042065 60.769184 L 19.766024 66.081684 Z M 30.354566 98.998353 L 35.521233 98.998353 L 24.489983 69.045226 L 18.380607 69.045226 L 7.349357 98.998353 L 12.542065 98.998353 L 14.891024 92.342103 L 27.979566 92.342103 Z M 16.427482 88.034811 L 21.448316 73.87856 L 26.46915 88.034811 Z M 50.495193 99.399395 C 56.672277 99.399395 61.375402 96.394186 61.375402 90.680644 C 61.375402 84.592102 55.979568 83.013977 51.271235 81.711894 C 47.641026 80.701477 44.469151 79.883768 44.469151 76.946268 C 44.469151 74.045226 47.114984 72.826476 49.906651 72.826476 C 53.03686 72.826476 55.516026 74.232726 56.44311 77.362935 L 61.042068 76.206685 C 59.885818 70.831684 54.906651 68.623351 49.656651 68.623351 C 43.963942 68.623351 39.385817 71.56606 39.385817 77.112935 C 39.385817 82.680644 44.047276 84.170227 48.583734 85.493144 C 52.510818 86.607727 56.146235 87.529602 56.187901 90.894186 C 56.229568 93.977519 53.583735 95.217103 50.578526 95.217103 C 46.989984 95.217103 44.276442 93.435853 43.396234 89.925436 L 38.417067 91.081686 C 39.385817 96.373353 44.130609 99.399395 50.495193 99.399395 Z M 50.120193 108.472312 C 51.713943 108.472312 53.078526 107.149395 53.078526 105.493145 C 53.078526 103.873353 51.713943 102.550437 50.120193 102.550437 C 48.479568 102.550437 47.135818 103.873353 47.135818 105.493145 C 47.135818 107.149395 48.479568 108.472312 50.120193 108.472312 Z M 80.32332 66.081684 L 74.927486 58.795225 L 72.255611 60.769184 L 76.984778 66.081684 Z M 87.57332 98.998353 L 92.739987 98.998353 L 81.708737 69.045226 L 75.599361 69.045226 L 64.56811 98.998353 L 69.755611 98.998353 L 72.109778 92.342103 L 85.19832 92.342103 Z M 73.646236 88.034811 L 78.66707 73.87856 L 83.682695 88.034811 Z M 113.219155 83.269185 C 115.614989 82.112935 116.854572 79.862935 116.854572 77.112935 C 116.854572 72.217101 113.385822 69.045226 107.463947 69.045226 L 98.073321 69.045226 L 98.073321 98.998353 L 110.068113 98.998353 C 115.844155 98.998353 119.016031 95.638978 119.016031 90.743144 C 119.016031 86.524394 116.682697 84.19106 113.219155 83.269185 Z M 107.48478 73.290018 C 110.552488 73.290018 112.187905 75.076476 112.187905 77.425435 C 112.187905 79.800435 110.677488 81.711894 107.989988 81.711894 L 102.927488 81.711894 L 102.927488 73.290018 Z M 109.161863 94.628561 L 102.927488 94.628561 L 102.927488 85.680644 L 108.974363 85.680644 C 112.526447 85.680644 114.14103 87.743144 114.14103 90.196269 C 114.14103 92.550436 112.568114 94.628561 109.161863 94.628561 Z M 126.260823 66.081684 L 129.604573 66.081684 L 134.328532 60.769184 L 131.661865 58.795225 Z M 125.401448 98.998353 L 130.422281 98.998353 L 130.422281 69.045226 L 125.401448 69.045226 Z M 125.401448 98.998353 " transform="matrix(0.75,0,0,0.75,146.237983,166.247334)"/>
</g>
</svg>
