<?xml version="1.0" encoding="UTF-8"?>
<svg xmlns="http://www.w3.org/2000/svg" xmlns:xlink="http://www.w3.org/1999/xlink" width="375pt" height="374.999991pt" viewBox="0 0 375 374.999991" version="1.2">
<defs>
<clipPath id="clip1">
  <path d="M 138.105469 129 L 213 129 L 213 246 L 138.105469 246 Z M 138.105469 129 "/>
</clipPath>
</defs>
<g id="surface1">
<rect x="0" y="0" width="375" height="374.999991" style="fill:rgb(100%,100%,100%);fill-opacity:1;stroke:none;"/>
<rect x="0" y="0" width="375" height="374.999991" style="fill:rgb(96.078491%,98.039246%,96.469116%);fill-opacity:1;stroke:none;"/>
<g clip-path="url(#clip1)" clip-rule="nonzero">
<path style=" stroke:none;fill-rule:nonzero;fill:rgb(32.939148%,32.939148%,32.939148%);fill-opacity:1;" d="M 151.855469 146.445312 C 151.953125 146.414062 152.054688 146.382812 152.160156 146.351562 C 151.855469 146.007812 151.515625 145.679688 151.011719 145.519531 C 150.234375 145.273438 149.875 144.621094 149.671875 143.859375 C 149.601562 145.089844 149.597656 146.3125 149.558594 147.546875 C 149.621094 147.503906 149.671875 147.453125 149.738281 147.417969 C 150.035156 147.277344 150.316406 147.195312 150.621094 147.089844 C 151.058594 146.945312 151.410156 146.605469 151.855469 146.445312 Z M 153.789062 147.621094 C 153.609375 147.605469 153.445312 147.566406 153.304688 147.484375 C 153.269531 147.460938 153.230469 147.425781 153.1875 147.402344 C 153.183594 147.402344 153.175781 147.40625 153.171875 147.40625 C 152.714844 147.519531 152.261719 147.621094 151.859375 147.878906 C 151.566406 148.058594 151.296875 148.242188 150.964844 148.332031 C 150.355469 148.496094 149.988281 148.96875 149.472656 149.269531 C 149.460938 149.398438 149.460938 149.519531 149.453125 149.648438 C 149.390625 150.34375 148.332031 151.445312 149.050781 152.132812 C 149.246094 152.316406 149.402344 152.5 149.542969 152.6875 C 149.921875 150.984375 150.476562 149.328125 152.117188 149.027344 C 152.164062 148.953125 152.234375 148.878906 152.328125 148.816406 C 152.832031 148.5 153.3125 148.0625 153.789062 147.621094 Z M 154.652344 168.808594 C 154.621094 168.683594 154.59375 168.554688 154.566406 168.4375 C 154.335938 167.285156 154.300781 166.367188 153.703125 165.277344 C 153.339844 164.613281 153.171875 163.871094 152.953125 163.152344 C 152.871094 163.214844 152.78125 163.28125 152.699219 163.34375 C 150.578125 164.953125 150.53125 166.605469 152.632812 167.753906 C 153.21875 168.070312 153.9375 168.652344 154.652344 168.808594 Z M 158.8125 171.390625 C 158.964844 172.160156 159.8125 172.125 160.484375 171.972656 C 160.234375 171.257812 160 170.527344 159.714844 169.820312 C 159.363281 170.339844 159.050781 170.867188 158.8125 171.390625 Z M 164.273438 133.601562 C 162.925781 133.058594 161.117188 133.632812 159.75 134.0625 C 158.378906 134.496094 153.605469 137.441406 152.925781 138.964844 C 153.128906 139.109375 153.316406 139.265625 153.492188 139.4375 C 153.699219 139.199219 153.90625 138.941406 154.089844 138.671875 C 154.617188 137.914062 155.300781 136.972656 156.253906 136.738281 C 157.648438 136.394531 158.824219 135.550781 160.171875 135.128906 C 161.5625 134.699219 162.902344 134.097656 164.273438 133.601562 Z M 163.445312 149.105469 C 162.578125 149.085938 161.539062 149.566406 160.609375 150.214844 C 160.621094 150.257812 160.636719 150.300781 160.644531 150.351562 C 160.660156 150.800781 160.964844 151.082031 160.75 151.605469 C 160.4375 152.335938 159.984375 153.121094 159.398438 153.671875 C 158.617188 154.410156 157.964844 155.25 157.234375 156.042969 C 156.613281 156.726562 155.898438 157.050781 155.148438 157.542969 C 154.449219 158 153.804688 156.886719 154.492188 156.433594 C 155.304688 155.898438 155.980469 155.539062 156.625 154.777344 C 157.117188 154.195312 157.613281 153.597656 158.164062 153.070312 C 158.339844 152.902344 159.652344 151.34375 159.613281 151.292969 C 159.5625 151.238281 159.527344 151.175781 159.496094 151.109375 C 159 151.574219 158.605469 152.039062 158.378906 152.421875 C 158.25 152.652344 157.917969 152.824219 157.652344 152.71875 C 156.335938 152.183594 155.265625 151.082031 153.960938 150.503906 C 150.859375 149.136719 151.019531 153.488281 150.351562 155.207031 C 149.460938 157.445312 150.390625 158.777344 150.574219 160.902344 C 150.625 161.628906 150.851562 162.542969 150.957031 163.421875 C 151.460938 162.945312 151.976562 162.5 152.238281 161.902344 C 152.675781 160.914062 154.164062 160.410156 154.796875 159.613281 C 155.851562 158.296875 156.804688 156.769531 158.121094 155.679688 C 160.28125 153.886719 161.703125 151.335938 163.445312 149.105469 Z M 176.777344 146.105469 C 176.8125 145.53125 177.011719 145.011719 176.984375 144.425781 C 176.96875 143.980469 176.96875 143.695312 176.675781 143.332031 C 176.632812 143.277344 176.597656 143.214844 176.566406 143.160156 C 174.542969 144.4375 171.640625 145.027344 169.371094 145.058594 C 168.539062 145.066406 168.539062 143.78125 169.371094 143.769531 C 171.351562 143.746094 174.039062 143.1875 175.863281 142.078125 C 174.617188 140.75 171.515625 140.363281 170.097656 140.5625 C 167.695312 140.902344 166.28125 142.640625 164.015625 143.214844 C 161.765625 143.78125 159.769531 145.234375 157.734375 146.363281 C 156.339844 147.140625 155.230469 148.242188 154.011719 149.191406 C 154.722656 149.410156 155.386719 149.761719 156.039062 150.152344 C 156.472656 149.503906 157.300781 149.058594 157.695312 148.347656 C 158.058594 147.683594 158.257812 147.078125 158.886719 146.617188 C 159.554688 146.105469 160.292969 145.5625 161.136719 145.410156 C 161.636719 145.3125 162.023438 145.539062 162.550781 145.328125 C 162.867188 145.207031 163.015625 145.183594 163.347656 145.167969 C 164.183594 145.125 164.179688 146.410156 163.347656 146.453125 C 163.003906 146.46875 162.710938 146.699219 162.363281 146.714844 C 161.953125 146.734375 161.230469 146.605469 160.890625 146.828125 C 160.390625 147.15625 159.519531 147.484375 159.285156 148.082031 C 159.027344 148.753906 158.566406 149.421875 158.070312 149.949219 C 157.910156 150.113281 157.246094 150.691406 157.089844 150.882812 C 157.300781 151.109375 157.519531 151.335938 157.625 151.199219 C 157.992188 150.726562 158.398438 150.191406 158.898438 149.867188 C 160.988281 148.507812 162.726562 146.59375 164.699219 147.929688 C 164.894531 146.902344 166.015625 145.894531 167.074219 146.054688 C 167.308594 146.089844 167.535156 146.140625 167.753906 146.207031 C 167.757812 146.195312 167.757812 146.191406 167.765625 146.183594 C 168.269531 145.207031 169.71875 145.519531 170.617188 145.574219 C 172.558594 145.699219 173.914062 146.96875 175.855469 146.339844 C 176.179688 146.234375 176.480469 146.167969 176.777344 146.105469 Z M 177.550781 155.152344 C 178.75 155.21875 179.777344 156.207031 180.527344 157.355469 C 180.417969 155.160156 176.929688 153.414062 175.332031 152.722656 C 173.351562 151.863281 171.300781 150.9375 169.199219 150.410156 C 168.566406 150.253906 166.851562 149.488281 165.6875 149.339844 C 165.554688 149.753906 165.027344 150.035156 164.652344 149.625 C 163.078125 151.578125 161.871094 153.800781 160.257812 155.703125 C 159.800781 156.242188 158.988281 156.492188 158.515625 157.007812 C 158.144531 157.464844 157.792969 157.925781 157.4375 158.390625 C 158.566406 157.636719 159.695312 156.886719 160.789062 156.082031 C 161.828125 155.324219 162.949219 153.980469 164.230469 153.570312 C 165.242188 153.253906 166.285156 153.019531 167.304688 152.734375 C 168.109375 152.511719 168.445312 153.753906 167.652344 153.976562 C 163.171875 155.222656 159.222656 158.597656 155.429688 161.3125 C 155.300781 161.410156 155.171875 161.441406 155.054688 161.429688 C 154.75 161.746094 154.398438 162.039062 154.042969 162.324219 C 154.042969 162.332031 154.042969 162.332031 154.042969 162.335938 C 154.523438 163.644531 155.152344 164.90625 155.640625 166.210938 C 157.144531 164.648438 158.835938 163.253906 160.460938 161.832031 C 162.382812 160.175781 164.089844 158.460938 166.3125 157.203125 C 167.039062 156.792969 167.683594 157.90625 166.964844 158.3125 C 164.667969 159.601562 162.898438 161.476562 160.882812 163.152344 C 159.191406 164.554688 157.476562 166.066406 155.996094 167.691406 C 156.179688 169.039062 156.367188 170.953125 157.359375 171.550781 C 158.304688 168.753906 161.050781 166.304688 162.726562 164 C 164.777344 161.183594 167.199219 160.113281 169.953125 158.109375 C 171.265625 157.15625 172.417969 155.679688 174.125 155.441406 C 175.277344 155.28125 176.386719 155.105469 177.550781 155.152344 Z M 180.300781 146.464844 C 180.609375 144.675781 181.066406 140.644531 179.21875 139.589844 C 178.175781 138.992188 176.90625 138.03125 175.660156 138.003906 C 174.828125 137.980469 174.828125 136.695312 175.660156 136.710938 C 176.730469 136.738281 178.351562 137.320312 179.496094 138.109375 C 179.503906 138.097656 179.507812 138.089844 179.507812 138.082031 C 178.566406 136.800781 176.847656 135.5625 175.941406 134.949219 C 174.648438 134.0625 172.773438 133.765625 171.113281 133.789062 C 171.742188 134.476562 172.253906 135.257812 172.503906 135.996094 C 172.777344 136.785156 171.535156 137.121094 171.265625 136.339844 C 170.609375 134.453125 167.46875 132.222656 165.589844 133.71875 C 165.722656 134.039062 165.632812 134.480469 165.203125 134.621094 C 162.851562 135.40625 160.644531 136.445312 158.347656 137.335938 C 156.039062 138.242188 154.277344 140.171875 152.785156 142.15625 C 152.292969 142.808594 151.179688 142.167969 151.679688 141.5 C 151.976562 141.105469 152.304688 140.742188 152.636719 140.386719 C 152.007812 139.597656 149.746094 138.921875 150.273438 140.609375 C 150.574219 141.550781 150.605469 142.585938 150.9375 143.507812 C 151.339844 144.632812 152.183594 144.34375 152.925781 145.050781 C 153.21875 145.324219 153.324219 145.488281 153.558594 145.832031 C 154.035156 146.546875 154.570312 146.277344 155.347656 146.101562 C 155.488281 146.066406 155.617188 146.078125 155.722656 146.125 C 156.859375 145.457031 158.113281 144.988281 159.164062 144.261719 C 160.246094 143.507812 160.84375 142.691406 162.128906 142.367188 C 163.914062 141.914062 165.171875 141.484375 166.542969 140.210938 C 168.035156 138.828125 171.21875 138.929688 173.03125 139.398438 C 174.636719 139.796875 176.558594 140.375 177.339844 141.921875 C 177.355469 141.964844 177.355469 142.003906 177.371094 142.042969 C 177.507812 142.226562 177.644531 142.40625 177.765625 142.597656 C 178.054688 141.925781 178.375 141.058594 177.574219 140.707031 C 176.730469 140.335938 175.730469 140.335938 174.914062 139.9375 C 174.15625 139.566406 173.371094 139.070312 172.550781 138.8125 C 171.761719 138.566406 172.101562 137.324219 172.898438 137.578125 C 173.980469 137.921875 174.9375 138.664062 176.046875 138.902344 C 177.070312 139.128906 178.28125 139.367188 179.054688 140.117188 C 179.507812 140.554688 179.460938 142.019531 179.222656 142.5 C 178.691406 143.566406 178.480469 144.800781 178.417969 145.996094 C 179.09375 146.046875 179.707031 146.214844 180.300781 146.464844 Z M 181.816406 170.632812 C 182.089844 168.4375 182.171875 166.464844 181.6875 164.285156 C 181.386719 162.957031 180.808594 161.707031 180.5625 160.375 C 180.5625 160.363281 180.5625 160.351562 180.5625 160.339844 C 180.503906 160.28125 180.457031 160.195312 180.425781 160.09375 C 179.453125 156.863281 175.886719 155.171875 172.949219 157.34375 C 171.164062 158.664062 169.472656 159.847656 167.59375 161.035156 C 165.300781 162.484375 164.25 164.46875 162.515625 166.410156 C 161.9375 167.0625 161.246094 167.820312 160.597656 168.636719 C 160.601562 168.648438 160.613281 168.664062 160.621094 168.683594 C 161.765625 171.257812 162.832031 173.894531 163.761719 176.585938 C 165.417969 181.378906 170.308594 184.421875 175.320312 182.910156 C 180.089844 181.464844 181.292969 174.820312 181.816406 170.632812 Z M 184.167969 243.023438 C 183.941406 242.488281 183.8125 241.941406 183.59375 241.34375 C 183.441406 240.914062 183.214844 240.546875 182.972656 240.195312 C 182.742188 240.542969 182.511719 240.914062 182.1875 241.160156 C 181.898438 241.386719 181.558594 241.460938 181.253906 241.648438 C 181.074219 241.765625 181.007812 241.964844 180.851562 242.097656 C 179.984375 242.828125 178.902344 243.339844 177.761719 243.421875 C 176.929688 243.484375 176.933594 242.191406 177.761719 242.132812 C 178.800781 242.0625 179.546875 241.476562 180.242188 240.789062 C 180.546875 240.476562 181.019531 240.449219 181.347656 240.195312 C 181.546875 240.050781 181.761719 239.703125 181.933594 239.453125 C 180.257812 238.832031 176.191406 241.554688 174.921875 242.191406 C 172.773438 243.273438 170.09375 243.210938 167.757812 243.210938 C 166.929688 243.214844 166.929688 241.925781 167.757812 241.921875 C 169.671875 241.921875 171.796875 242.011719 173.617188 241.324219 C 175.148438 240.746094 176.429688 239.691406 178.007812 239.222656 C 179.199219 238.871094 180.546875 238.011719 181.84375 238.140625 C 181.757812 237.875 181.699219 237.628906 181.679688 237.402344 C 179.390625 235.1875 175.097656 235.253906 172.234375 234.898438 C 171.25 234.773438 170.589844 234.222656 169.621094 233.953125 C 168.304688 233.585938 166.945312 233.457031 165.628906 233.128906 C 164.03125 232.730469 161.988281 232.8125 160.375 233.28125 C 160.300781 233.667969 160.226562 234.058594 160.160156 234.449219 C 161.644531 234.449219 163.042969 234.464844 164.476562 234.890625 C 165.0625 235.070312 165.648438 235.132812 166.253906 235.261719 C 166.730469 235.363281 167.273438 235.773438 167.738281 235.945312 C 168.515625 236.21875 168.191406 237.457031 167.414062 237.179688 C 165.535156 236.511719 162.394531 236.066406 160.742188 235.859375 C 160.902344 236.054688 161.046875 236.242188 161.128906 236.433594 C 161.324219 236.894531 161.425781 237.332031 161.503906 237.789062 C 163.464844 238.070312 165.335938 238.882812 167.296875 239.222656 C 168.117188 239.363281 167.769531 240.605469 166.957031 240.464844 C 165.847656 240.269531 164.726562 240.050781 163.652344 239.6875 C 163.007812 239.476562 162.359375 239.246094 161.691406 239.113281 C 161.867188 240.03125 162.199219 240.910156 162.191406 241.851562 C 162.191406 242.246094 162.140625 242.863281 162.101562 243.351562 C 162.480469 243.480469 162.863281 243.597656 163.175781 243.859375 C 163.195312 243.871094 163.195312 243.882812 163.207031 243.894531 C 164.921875 244.195312 167.636719 243.671875 168.878906 243.671875 C 171.253906 243.671875 173.632812 243.621094 176.011719 243.617188 C 177.90625 243.609375 180 243.730469 181.886719 243.53125 C 182.664062 243.449219 183.40625 243.179688 184.167969 243.023438 Z M 184.414062 153.816406 C 184.441406 153.1875 185.683594 150.972656 185.402344 150.835938 C 184.894531 150.578125 184.28125 150.351562 183.859375 149.949219 C 182.863281 148.976562 181.394531 148.191406 180.148438 147.59375 C 178.082031 146.609375 176.601562 147.554688 174.648438 148.035156 C 173.789062 148.25 169.882812 145.964844 168.996094 146.691406 C 169.953125 147.15625 170.859375 147.722656 171.914062 147.984375 C 172.722656 148.183594 172.382812 149.425781 171.574219 149.226562 C 170.863281 149.046875 166.65625 146.453125 166.035156 147.828125 C 166.914062 148.035156 167.777344 148.734375 169.011719 149.042969 C 171.417969 149.636719 174.554688 150.519531 176.644531 151.910156 C 177.390625 152.414062 178.277344 152.65625 179.070312 153.042969 C 178.902344 152.378906 178.632812 151.84375 177.992188 151.429688 C 177.433594 151.054688 176.882812 150.691406 176.261719 150.417969 C 176.210938 150.394531 175.074219 149.9375 175.214844 149.859375 C 174.496094 150.269531 173.84375 149.15625 174.566406 148.75 C 175.050781 148.476562 175.558594 148.679688 176.023438 148.90625 C 176.828125 149.304688 177.613281 149.625 178.367188 150.128906 C 179.078125 150.605469 179.785156 151.082031 180.089844 151.925781 C 180.207031 152.261719 180.316406 153.085938 180.414062 153.519531 C 180.425781 153.523438 180.429688 153.53125 180.441406 153.535156 C 181.066406 153.660156 181.769531 153.949219 182.285156 154.25 C 182.839844 154.585938 183.34375 155.078125 183.484375 155.738281 C 183.640625 156.457031 183.921875 157 183.929688 157.753906 C 183.933594 158.429688 183.578125 159.363281 183.277344 159.964844 C 182.914062 160.710938 181.808594 160.0625 182.171875 159.320312 C 182.390625 158.867188 182.667969 157.992188 182.640625 157.488281 C 182.613281 157.0625 182.402344 156.792969 182.316406 156.390625 C 182.144531 155.613281 181.714844 155.363281 181.015625 155.144531 C 180.945312 155.125 180.871094 155.089844 180.804688 155.046875 C 180.878906 155.1875 180.960938 155.3125 181.078125 155.417969 C 182.097656 156.328125 181.957031 157.9375 181.421875 159.0625 C 181.515625 159.296875 181.59375 159.519531 181.664062 159.730469 C 181.726562 159.804688 181.785156 159.902344 181.808594 160.03125 C 181.898438 160.519531 182.015625 161 182.136719 161.480469 C 184.601562 160.847656 184.34375 155.636719 184.414062 153.816406 Z M 187.324219 151.820312 C 187.324219 149.8125 188.09375 147.863281 186.609375 146.125 C 185.445312 144.773438 184.578125 142.6875 183.238281 141.523438 C 182.667969 141.023438 182.03125 140.625 181.398438 140.207031 C 181.394531 140.222656 181.386719 140.242188 181.386719 140.257812 C 181.371094 140.355469 181.332031 140.441406 181.289062 140.507812 C 182.050781 142.5 181.898438 144.78125 181.527344 146.890625 C 181.515625 146.957031 181.492188 147.011719 181.464844 147.066406 C 181.816406 147.269531 182.167969 147.492188 182.53125 147.722656 C 182.96875 146.410156 182.796875 144.660156 182.453125 143.332031 C 182.25 142.523438 183.484375 142.183594 183.695312 142.980469 C 183.898438 143.789062 183.929688 144.574219 184.035156 145.390625 C 184.144531 146.257812 184.046875 147.246094 183.765625 148.082031 C 183.722656 148.210938 183.648438 148.308594 183.558594 148.378906 C 184.035156 148.671875 184.53125 148.964844 185.082031 149.238281 C 186.527344 149.964844 186.863281 150.175781 186.863281 151.820312 C 186.863281 152.21875 186.578125 152.6875 186.328125 152.96875 C 185.605469 153.777344 185.636719 154.835938 185.65625 155.84375 C 185.976562 155.335938 186.300781 154.726562 186.566406 154.128906 C 186.585938 154.015625 186.636719 153.917969 186.703125 153.824219 C 187.070312 152.976562 187.324219 152.195312 187.324219 151.820312 Z M 189.332031 143.160156 C 189.054688 142.84375 188.570312 142.4375 188.46875 142.074219 C 188.28125 141.378906 188.441406 140.546875 188.304688 139.835938 C 187.925781 137.910156 186.332031 137.378906 184.757812 136.503906 C 183.519531 135.8125 182.085938 135.398438 181.015625 134.460938 C 180.363281 133.894531 179.429688 129.695312 178.589844 132.636719 C 178.394531 133.320312 177.457031 133.167969 177.339844 132.605469 C 177.234375 132.558594 177.140625 132.488281 177.0625 132.375 C 176.761719 131.914062 176.191406 130.402344 175.519531 130.796875 C 174.734375 131.265625 174.078125 131.914062 173.695312 132.746094 C 175.179688 133.050781 176.601562 133.640625 177.808594 134.566406 C 178.460938 135.074219 179.195312 136.386719 179.832031 136.664062 C 180.386719 136.898438 180.796875 137.101562 181.253906 137.484375 C 181.652344 137.8125 181.703125 138.339844 181.652344 138.875 C 182.9375 139.886719 184.179688 140.589844 185.167969 142.0625 C 185.746094 142.921875 186.332031 143.664062 186.882812 144.410156 C 187.679688 144.089844 188.671875 143.757812 189.332031 143.160156 Z M 189.460938 161.605469 C 190.496094 161.160156 189.839844 161.480469 189.515625 160.582031 C 189.304688 159.984375 189.148438 159.363281 188.929688 158.769531 C 188.507812 157.605469 187.878906 156.628906 187.269531 155.613281 C 186.835938 156.558594 186.308594 157.464844 185.519531 157.96875 C 185.214844 159.949219 184.332031 162.3125 182.476562 162.730469 C 182.707031 163.542969 182.9375 164.355469 183.109375 165.191406 C 184.058594 164.609375 184.851562 163.730469 185.886719 163.304688 C 187.128906 162.792969 188.234375 162.132812 189.460938 161.605469 Z M 193.679688 154.082031 C 193.09375 154.285156 192.460938 154.414062 192.066406 154.128906 C 190.988281 153.332031 189.761719 152.847656 188.644531 152.125 C 188.5 152.65625 188.324219 153.160156 188.117188 153.605469 C 188.046875 153.769531 187.964844 153.941406 187.894531 154.128906 C 188.828125 155.878906 189.722656 157.347656 190.40625 159.261719 C 190.496094 159.515625 190.675781 159.816406 190.851562 160.148438 C 191.453125 158.964844 191.710938 157.5625 192.449219 156.453125 C 192.867188 155.832031 193.34375 154.941406 193.679688 154.082031 Z M 194.738281 146.789062 C 194.738281 145.617188 195.621094 142.207031 194.171875 141.441406 C 194.199219 141.511719 194.234375 141.582031 194.257812 141.65625 C 194.511719 142.570312 194.277344 143.617188 194.09375 144.542969 C 193.941406 145.28125 193.660156 145.785156 193.050781 146.222656 C 192.378906 146.714844 191.738281 145.597656 192.394531 145.117188 C 192.921875 144.730469 193.273438 142.285156 192.90625 141.792969 C 192.664062 141.46875 191.804688 140.484375 191.113281 139.992188 C 191.222656 140.480469 191.414062 140.996094 191.390625 141.457031 C 191.359375 142.066406 191.203125 142.652344 190.925781 143.195312 C 190.300781 144.449219 188.851562 144.972656 187.613281 145.480469 C 188.105469 146.265625 188.527344 147.101562 188.800781 148.121094 C 189.011719 148.910156 189.03125 149.847656 188.914062 150.765625 C 188.917969 150.765625 188.917969 150.773438 188.925781 150.773438 C 189.46875 151.160156 190.050781 151.476562 190.628906 151.785156 C 190.675781 151.722656 190.726562 151.660156 190.792969 151.609375 C 191.898438 150.78125 191.289062 149.730469 190.464844 148.980469 C 189.804688 148.382812 189.304688 147.710938 188.8125 146.972656 C 188.351562 146.28125 189.464844 145.636719 189.925781 146.324219 C 190.417969 147.0625 190.925781 147.671875 191.597656 148.253906 C 192.066406 148.664062 192.460938 149.226562 192.648438 149.828125 C 192.976562 150.867188 192.535156 151.746094 191.792969 152.429688 C 191.828125 152.449219 191.863281 152.464844 191.894531 152.484375 C 192.738281 152.992188 193.539062 152.710938 194.414062 152.421875 C 194.910156 150.808594 194.738281 148.308594 194.738281 146.789062 Z M 196.960938 243.140625 C 196.222656 241.277344 195.15625 238.65625 193.871094 237.402344 C 192.648438 236.207031 191.144531 235.113281 189.738281 234.109375 C 188.5625 233.269531 186.085938 231.242188 185.777344 233.566406 C 186.625 233.671875 187.226562 234.109375 188.019531 234.46875 C 188.84375 234.847656 189.75 235.253906 190.285156 236.039062 C 190.804688 236.796875 191.265625 237.613281 191.746094 238.402344 C 192.167969 239.113281 191.0625 239.761719 190.628906 239.050781 C 189.972656 237.957031 189.351562 236.476562 188.136719 235.925781 C 187.175781 235.488281 186.117188 234.546875 185.378906 235.34375 C 185.742188 235.527344 186.054688 235.75 186.257812 235.96875 C 186.898438 236.640625 187.707031 237.105469 188.351562 237.78125 C 188.957031 238.421875 189.457031 239.277344 189.925781 240.007812 C 190.371094 240.710938 189.257812 241.355469 188.8125 240.660156 C 188.070312 239.5 184.644531 234.898438 183.109375 236.734375 C 183.042969 236.816406 183.003906 236.902344 182.972656 237 C 183.015625 237.136719 182.996094 237.285156 182.949219 237.414062 C 183.074219 238.410156 184.332031 239.796875 184.617188 240.425781 C 184.96875 241.195312 185.09375 241.984375 185.457031 242.71875 C 185.925781 243 186.386719 243.304688 186.8125 243.648438 C 188.0625 244.652344 190.523438 243.820312 191.878906 243.617188 C 193.523438 243.367188 195.316406 243.433594 196.960938 243.140625 Z M 211.1875 243.039062 C 211.734375 243.058594 210.042969 238.410156 209.898438 238.144531 C 209.167969 236.816406 208.035156 235.953125 206.664062 235.367188 C 206.410156 235.261719 206.09375 235.195312 205.949219 234.929688 C 205.277344 233.742188 204.617188 232.894531 203.765625 231.910156 C 203.378906 232.132812 202.765625 231.96875 202.78125 231.394531 C 202.882812 227.496094 198.523438 224.117188 196.117188 221.507812 C 195.152344 220.464844 194.382812 219.210938 193.589844 218.015625 C 193.507812 217.976562 193.421875 217.90625 193.359375 217.8125 C 193.023438 217.335938 192.710938 216.851562 192.414062 216.359375 C 191.769531 215.476562 191.121094 214.570312 190.703125 213.621094 C 190.613281 213.421875 190.628906 213.226562 190.703125 213.070312 C 190.3125 212.195312 189.949219 211.300781 189.597656 210.394531 C 188.75 208.167969 187.132812 206.546875 185.753906 204.714844 C 185.140625 205.09375 184.460938 205.007812 183.769531 204.996094 C 182.945312 204.984375 182.945312 203.703125 183.769531 203.710938 C 184.175781 203.71875 184.632812 203.820312 185.007812 203.648438 C 184.917969 203.507812 184.824219 203.378906 184.742188 203.238281 C 183.78125 201.632812 182.980469 199.917969 182.277344 198.179688 C 182.214844 198.375 182.054688 198.53125 181.84375 198.613281 C 181.640625 198.703125 181.410156 198.707031 181.183594 198.707031 C 180.359375 198.707031 180.359375 197.425781 181.183594 197.425781 C 181.335938 197.425781 181.371094 197.429688 181.503906 197.378906 C 181.667969 197.308594 181.839844 197.347656 181.992188 197.4375 C 181.84375 197.0625 181.695312 196.691406 181.5625 196.320312 C 180.839844 194.355469 179.679688 193.472656 178.085938 192.242188 C 177.050781 191.441406 175.542969 189.738281 174.058594 189.765625 C 174.03125 189.972656 173.996094 190.175781 173.960938 190.382812 C 174.007812 190.410156 174.046875 190.445312 174.085938 190.488281 C 175.671875 192.207031 176.71875 194.460938 176.449219 196.875 C 176.257812 198.566406 174.027344 198.8125 172.890625 198.203125 C 170.148438 196.734375 167.53125 194.507812 165.132812 192.535156 C 162.640625 190.46875 157.980469 187.644531 154.585938 189.539062 C 154.464844 189.605469 154.351562 189.628906 154.246094 189.621094 C 152.417969 191.324219 150.71875 193.210938 149.128906 195.117188 C 147.902344 196.59375 146.960938 198.292969 146.113281 200 C 145.640625 200.925781 145.625 202.785156 145.644531 203.746094 C 145.65625 203.785156 145.667969 203.824219 145.675781 203.863281 C 145.6875 203.976562 145.703125 204.082031 145.726562 204.1875 C 145.792969 204.210938 145.851562 204.242188 145.910156 204.28125 C 146.148438 203.722656 146.414062 202.933594 146.492188 202.785156 C 146.757812 202.269531 147.089844 201.289062 147.511719 200.898438 C 148.617188 199.859375 149.324219 198.210938 150.648438 197.441406 C 151.371094 197.027344 152.011719 198.140625 151.296875 198.554688 C 150.75 198.867188 150.316406 199.550781 149.929688 200.023438 C 149.695312 200.308594 149.296875 200.738281 148.953125 201.152344 C 152.34375 200.347656 156.195312 200.875 159.398438 202.058594 C 160.140625 202.332031 159.859375 203.484375 159.144531 203.320312 C 159.003906 203.578125 158.734375 203.730469 158.425781 203.644531 C 158.128906 203.566406 157.898438 203.242188 157.964844 202.929688 C 154.785156 201.953125 151.140625 201.671875 148.039062 202.765625 C 147.65625 203.625 147.25 204.519531 146.804688 205.304688 C 146.78125 205.351562 146.75 205.394531 146.714844 205.445312 C 149.847656 204.617188 153.070312 204.652344 156.289062 204.832031 C 157.109375 204.871094 157.117188 206.160156 156.289062 206.113281 C 152.894531 205.925781 149.441406 205.898438 146.15625 206.945312 C 146.148438 207.394531 146.125 207.839844 146.105469 208.285156 C 147.265625 207.792969 148.824219 207.414062 149.789062 207.414062 C 151.5625 207.414062 153.242188 207.417969 154.992188 207.71875 C 155.808594 207.851562 155.460938 209.09375 154.652344 208.953125 C 153.105469 208.691406 150.964844 208.378906 149.394531 208.769531 C 148.402344 209.023438 146.960938 209.234375 146.027344 209.765625 C 145.996094 210.242188 145.96875 210.722656 145.914062 211.195312 C 146.449219 211.007812 146.996094 210.871094 147.550781 210.6875 C 148.601562 210.335938 149.671875 210.339844 150.734375 210.09375 C 151.539062 209.902344 151.882812 211.144531 151.074219 211.332031 C 149.320312 211.742188 147.367188 211.78125 145.738281 212.675781 C 145.710938 212.859375 145.699219 213.050781 145.667969 213.234375 C 145.640625 213.402344 145.617188 213.566406 145.582031 213.730469 C 147.164062 213.035156 148.949219 212.78125 150.519531 212.097656 C 151.671875 211.585938 153.90625 212.546875 155.042969 212.980469 C 158.464844 214.296875 161.789062 216.699219 164.539062 219.222656 C 164.621094 218.917969 164.6875 218.628906 164.746094 218.339844 C 163.976562 217.636719 163.292969 216.847656 162.550781 216.121094 C 162.210938 215.789062 161.84375 215.503906 161.46875 215.214844 C 161.054688 215.417969 160.46875 215.011719 160.5625 214.496094 C 160.351562 214.328125 160.152344 214.152344 159.960938 213.960938 C 157.964844 211.960938 155.464844 212.078125 152.972656 211.332031 C 152.175781 211.097656 152.519531 209.855469 153.3125 210.09375 C 154.175781 210.351562 155.136719 210.492188 156.09375 210.664062 C 156.238281 209.964844 157.378906 210 157.355469 210.78125 C 157.355469 210.832031 157.34375 210.878906 157.335938 210.925781 C 158.414062 211.207031 159.4375 211.617188 160.238281 212.425781 C 160.597656 212.777344 160.964844 213.132812 161.339844 213.496094 C 161.722656 213.449219 162.140625 213.785156 162.09375 214.207031 C 163.066406 215.117188 164.0625 216.019531 165.039062 216.886719 C 165.0625 216.761719 165.085938 216.632812 165.101562 216.515625 C 165.195312 215.925781 165.308594 215.308594 165.429688 214.683594 C 165.214844 214.789062 164.945312 214.785156 164.714844 214.585938 C 164.109375 214.074219 163.289062 213.925781 162.722656 213.363281 C 162.597656 213.246094 162.46875 213.128906 162.335938 213.011719 C 162.253906 212.96875 162.183594 212.898438 162.125 212.828125 C 161.710938 212.476562 161.28125 212.144531 160.871094 211.792969 C 160.183594 211.214844 159.375 210.492188 158.53125 210.125 C 158.226562 209.988281 157.90625 209.894531 157.59375 209.78125 C 157.277344 209.855469 156.882812 209.730469 156.851562 209.410156 C 156.839844 209.402344 156.820312 209.398438 156.804688 209.378906 C 156.183594 208.910156 156.730469 207.875 157.359375 208.210938 C 157.582031 208.191406 157.8125 208.300781 157.910156 208.542969 C 158.441406 208.796875 159.050781 208.9375 159.550781 209.25 C 160.339844 209.742188 161.066406 210.289062 161.777344 210.886719 C 161.96875 211.042969 162.164062 211.222656 162.363281 211.414062 C 162.417969 211.277344 162.457031 211.136719 162.515625 211.015625 C 162.667969 210.699219 163.113281 210.621094 163.398438 210.785156 C 163.71875 210.980469 163.773438 211.347656 163.628906 211.664062 C 163.546875 211.84375 163.511719 212.046875 163.417969 212.226562 C 163.410156 212.238281 163.394531 212.265625 163.378906 212.289062 C 163.605469 212.464844 163.84375 212.609375 164.082031 212.710938 C 164.699219 212.96875 165.125 213.25 165.628906 213.683594 C 165.769531 212.972656 165.90625 212.246094 166.023438 211.523438 C 165.425781 211.015625 164.796875 210.667969 164.125 210.257812 C 163.421875 209.828125 162.867188 209.21875 162.175781 208.777344 C 161.082031 208.070312 159.789062 207.371094 158.539062 206.914062 C 158.433594 207.027344 158.28125 207.09375 158.109375 207.09375 C 157.769531 207.09375 157.449219 206.804688 157.464844 206.453125 C 157.484375 206.171875 157.542969 205.914062 157.625 205.652344 C 157.742188 205.316406 158.070312 205.101562 158.421875 205.207031 C 158.632812 205.257812 158.8125 205.445312 158.871094 205.664062 C 160.375 206.199219 162.019531 207.050781 163.261719 207.992188 C 164.253906 208.753906 165.261719 209.316406 166.226562 210.03125 C 166.300781 209.28125 166.34375 208.542969 166.320312 207.8125 C 165.601562 207.054688 164.582031 206.578125 163.71875 205.992188 C 162.839844 205.386719 162.09375 204.789062 161.082031 204.417969 C 160.308594 204.128906 160.648438 202.882812 161.425781 203.175781 C 161.945312 203.371094 162.554688 203.550781 163.003906 203.882812 C 163.523438 204.28125 164.066406 204.773438 164.660156 205.058594 C 165.128906 205.28125 165.628906 205.582031 166.09375 205.914062 C 165.976562 205.394531 165.816406 204.882812 165.59375 204.398438 C 165.570312 204.355469 165.554688 204.304688 165.53125 204.257812 C 165.15625 204.058594 164.777344 203.90625 164.359375 203.722656 C 163.804688 203.484375 163.183594 202.886719 162.582031 202.828125 C 161.765625 202.753906 161.753906 201.464844 162.582031 201.542969 C 163.371094 201.621094 163.898438 202.070312 164.585938 202.414062 C 164.648438 202.441406 164.710938 202.464844 164.769531 202.496094 C 164.21875 201.277344 163.585938 200.300781 162.046875 199.53125 C 161.476562 199.246094 160.917969 198.917969 160.355469 198.578125 C 160.316406 198.65625 160.289062 198.71875 160.269531 198.800781 C 160.035156 199.585938 158.789062 199.25 159.023438 198.453125 C 159.082031 198.273438 159.15625 198.097656 159.25 197.941406 C 158.683594 197.613281 158.113281 197.320312 157.511719 197.078125 C 156.753906 196.777344 157.089844 195.527344 157.863281 195.84375 C 159.539062 196.511719 161.082031 197.59375 162.703125 198.421875 C 164.082031 199.132812 165.226562 199.726562 165.769531 201.261719 C 166.035156 201.992188 166.425781 202.757812 166.792969 203.542969 C 166.90625 203.648438 166.953125 203.785156 166.96875 203.917969 C 167.523438 205.136719 167.976562 206.398438 167.8125 207.675781 C 167.585938 209.472656 167.328125 211.285156 167.039062 213.074219 C 166.734375 214.976562 166.402344 216.921875 165.921875 218.824219 C 166.132812 218.644531 166.332031 218.472656 166.53125 218.292969 C 167.535156 217.359375 168.140625 216.398438 168.539062 215.078125 C 168.777344 214.292969 170.019531 214.625 169.777344 215.429688 C 169.445312 216.542969 169.011719 217.570312 168.210938 218.433594 C 167.433594 219.269531 166.300781 219.949219 165.652344 220.886719 C 165.542969 221.054688 165.382812 221.136719 165.226562 221.167969 C 164.804688 222.390625 164.304688 223.578125 163.664062 224.703125 C 163.25 225.429688 162.726562 226.230469 162.246094 227.046875 C 163.28125 226.894531 164.363281 226.933594 165.382812 226.972656 C 167.59375 227.070312 169.730469 227.214844 171.953125 227.046875 C 172.78125 226.984375 172.777344 228.269531 171.953125 228.332031 C 170.253906 228.460938 168.574219 228.476562 166.875 228.398438 C 165.171875 228.316406 163.113281 227.894531 161.464844 228.539062 C 161.179688 229.15625 160.953125 229.785156 160.878906 230.386719 C 160.808594 230.898438 160.71875 231.390625 160.636719 231.882812 C 162.164062 231.527344 164.03125 231.40625 165.449219 231.757812 C 166.929688 232.132812 168.519531 232.167969 169.964844 232.714844 C 171.070312 233.128906 172.171875 233.609375 173.351562 233.753906 C 176.050781 234.085938 179.679688 234.203125 182.039062 236.007812 C 182.21875 235.742188 182.472656 235.476562 182.816406 235.183594 C 183.132812 234.902344 183.597656 234.84375 184.089844 234.914062 C 184.191406 234.726562 184.320312 234.503906 184.472656 234.292969 C 184.464844 234.277344 184.460938 234.269531 184.460938 234.253906 C 184.4375 233.351562 184.4375 232.132812 185.164062 231.554688 C 185.132812 231.148438 185.035156 230.898438 185.316406 230.441406 C 185.753906 229.738281 186.351562 230.679688 186.355469 229.085938 C 186.363281 227.441406 186.730469 225.644531 186.269531 224.078125 C 185.734375 222.277344 184.582031 220.890625 183.320312 219.550781 C 182.75 218.949219 183.660156 218.035156 184.230469 218.636719 C 184.441406 218.871094 184.667969 219.109375 184.894531 219.351562 C 184.976562 216.816406 184.386719 214.679688 183.359375 212.214844 C 182.300781 209.644531 181.921875 206.894531 180.84375 204.316406 C 180.527344 203.550781 181.773438 203.222656 182.085938 203.976562 C 183.285156 206.851562 183.980469 209.960938 184.953125 212.917969 C 185.414062 214.324219 186.019531 215.664062 186.351562 217.109375 C 186.589844 218.144531 186.210938 219.539062 186.097656 220.5625 C 186.085938 220.609375 186.082031 220.664062 186.066406 220.710938 C 186.585938 221.390625 187.027344 222.117188 187.261719 222.90625 C 187.890625 225.027344 187.65625 226.195312 187.648438 228.386719 C 187.644531 229.285156 187.679688 230.632812 186.757812 231.175781 C 186.753906 231.175781 186.753906 231.179688 186.753906 231.179688 C 187.429688 231.171875 187.964844 231.285156 188.445312 231.488281 C 188.464844 229.925781 188.5 228.007812 188.1875 226.3125 C 187.917969 224.808594 187.636719 223.390625 187.460938 221.871094 C 187.375 221.050781 188.660156 221.042969 188.753906 221.851562 C 188.9375 223.503906 189.269531 225.117188 189.570312 226.75 C 189.902344 228.578125 189.734375 232.296875 189.734375 232.296875 C 189.734375 232.304688 189.726562 232.308594 189.726562 232.3125 C 190.121094 232.640625 190.527344 233.023438 191.007812 233.449219 C 191.144531 233.566406 191.273438 233.683594 191.40625 233.796875 C 191.6875 232.058594 191.089844 230.332031 190.773438 228.625 C 190.535156 227.300781 190.542969 225.949219 190.398438 224.613281 C 190.316406 223.792969 191.605469 223.796875 191.695312 224.613281 C 191.898438 226.628906 191.980469 228.558594 192.503906 230.523438 C 192.867188 231.871094 192.90625 233.390625 192.515625 234.738281 C 192.613281 234.808594 192.699219 234.886719 192.789062 234.964844 C 193.027344 234.691406 193.332031 234.480469 193.601562 234.222656 C 194.191406 233.644531 195.105469 234.550781 194.507812 235.125 C 194.273438 235.359375 193.96875 235.546875 193.757812 235.804688 C 194.753906 236.703125 195.648438 237.671875 196.4375 239.066406 C 196.632812 239.410156 196.820312 239.773438 197 240.140625 C 197.011719 240.140625 197.019531 240.136719 197.03125 240.136719 C 197.019531 240.148438 197.019531 240.152344 197.011719 240.160156 C 197.011719 240.160156 197.011719 240.160156 197.011719 240.167969 C 197.03125 240.148438 197.058594 240.113281 197.101562 240.054688 C 197.117188 240.03125 197.140625 240 197.171875 239.964844 C 197.246094 239.882812 197.328125 239.808594 197.417969 239.738281 C 197.578125 239.609375 197.757812 239.492188 197.917969 239.359375 C 198.277344 239.066406 198.621094 238.8125 199.054688 238.667969 C 199.84375 238.398438 200.179688 239.644531 199.402344 239.90625 C 198.984375 240.042969 198.644531 240.429688 198.292969 240.675781 C 198.007812 240.886719 197.863281 241.167969 197.550781 241.300781 C 197.816406 241.886719 198.058594 242.472656 198.28125 243.039062 C 199.75 243.015625 201.144531 242.953125 202.449219 243.214844 C 203.707031 243.472656 207.375 244.257812 206.894531 242.113281 C 206.855469 241.933594 206.890625 241.777344 206.953125 241.652344 C 206.882812 241.320312 206.765625 240.992188 206.574219 240.660156 C 206.046875 239.730469 205.417969 238.824219 204.828125 237.933594 C 204.371094 237.238281 205.484375 236.59375 205.9375 237.285156 C 206.648438 238.351562 207.289062 239.453125 208.035156 240.5 C 208.496094 241.140625 208.394531 242.421875 208.347656 243.28125 C 209.273438 243.058594 210.226562 243.015625 211.1875 243.039062 Z M 211.878906 239.601562 C 212.226562 240.710938 213.0625 242.695312 212.375 243.871094 C 211.789062 244.867188 208.804688 244.363281 207.945312 244.726562 C 207.652344 244.855469 207.371094 244.761719 207.183594 244.585938 C 206.84375 244.691406 206.410156 244.746094 205.871094 244.746094 C 203.175781 244.773438 197.691406 244.328125 197.691406 244.328125 C 197.675781 244.328125 197.65625 244.316406 197.640625 244.316406 C 195.273438 244.839844 192.640625 244.835938 190.230469 245.15625 C 189.246094 245.289062 187.871094 245.652344 186.898438 245.1875 C 186.339844 244.921875 185.859375 244.554688 185.359375 244.207031 C 185.261719 244.21875 185.15625 244.214844 185.0625 244.195312 C 183.894531 244.246094 182.441406 244.820312 181.214844 244.820312 C 178.503906 244.820312 175.804688 244.886719 173.089844 244.941406 C 170.300781 244.996094 167.46875 244.796875 164.679688 245.023438 C 163.925781 245.089844 163.300781 245.164062 162.710938 245.085938 C 162.394531 245.199219 162.019531 245.1875 161.699219 245.109375 C 161.492188 245.058594 161.347656 244.929688 161.199219 244.796875 C 157.863281 245.957031 153.335938 245.65625 149.90625 245.148438 C 148.605469 244.957031 147.425781 244.554688 146.167969 244.265625 C 144.664062 243.917969 143.269531 244.199219 141.777344 244.460938 C 141.023438 244.59375 139.472656 244.941406 138.777344 244.332031 C 138.132812 243.761719 138.089844 242.964844 138.089844 242.144531 C 138.089844 241.324219 138.476562 240.453125 138.460938 239.5625 C 138.449219 238.949219 138.40625 238.507812 138.6875 237.949219 C 139.699219 235.921875 140.050781 234.847656 141.777344 233.246094 C 141.777344 233.238281 141.78125 233.238281 141.78125 233.238281 C 141.609375 232.488281 142.058594 231.371094 142.144531 230.6875 C 142.457031 228.378906 143.257812 226.195312 143.214844 223.847656 C 143.152344 220.96875 143.488281 218.15625 143.871094 215.351562 C 143.753906 215.152344 143.753906 214.90625 143.964844 214.710938 C 144.394531 211.605469 144.847656 208.492188 144.871094 205.300781 C 144.75 205.101562 144.652344 204.878906 144.574219 204.65625 C 144.464844 204.589844 144.382812 204.488281 144.382812 204.355469 C 144.382812 204.195312 144.386719 204.042969 144.386719 203.882812 C 144.386719 203.878906 144.386719 203.871094 144.382812 203.863281 C 144.375 203.800781 144.382812 203.742188 144.394531 203.683594 C 144.441406 200.761719 144.859375 199.113281 146.453125 196.699219 C 147.933594 194.449219 149.929688 191.75 151.917969 189.929688 C 154.433594 187.621094 156.535156 185.316406 158.601562 182.585938 C 159.9375 180.8125 160.402344 179.394531 160.402344 177.179688 C 160.402344 175.867188 160.335938 174.578125 160.472656 173.273438 C 159.90625 173.363281 159.34375 173.355469 158.757812 173.183594 C 158.542969 173.121094 158.332031 172.976562 158.144531 172.78125 C 158.035156 172.839844 157.898438 172.855469 157.769531 172.839844 C 157.636719 172.945312 157.460938 172.988281 157.234375 172.90625 C 156.167969 172.519531 155.472656 171.335938 155.042969 170.136719 C 155.035156 170.136719 155.035156 170.136719 155.03125 170.136719 C 153.902344 170.164062 150.367188 168.683594 150.074219 167.5 C 149.863281 166.664062 149.523438 166.144531 149.699219 165.339844 C 149.621094 165.210938 149.589844 165.042969 149.652344 164.855469 C 149.816406 164.34375 149.355469 162.898438 149.351562 162.371094 C 149.339844 161.292969 149.03125 160.304688 148.886719 159.257812 C 148.710938 158.027344 148.289062 156.753906 148.8125 155.546875 C 148.949219 155.222656 149.0625 154.835938 149.160156 154.421875 C 149.042969 154.351562 148.945312 154.246094 148.886719 154.085938 C 148.589844 153.308594 147.289062 152.707031 147.488281 151.71875 C 147.679688 150.746094 148.109375 149.785156 148.230469 148.8125 C 148.394531 147.511719 148.121094 146.265625 148.144531 144.972656 C 148.179688 143.585938 148.460938 142.316406 148.675781 140.960938 C 148.707031 140.75 148.816406 140.621094 148.953125 140.546875 C 148.765625 139.550781 148.910156 138.664062 150.101562 138.34375 C 150.632812 138.203125 151.203125 138.242188 151.746094 138.402344 C 152.625 136.277344 155.910156 135.0625 157.511719 133.6875 C 159.109375 132.324219 162.691406 131.570312 164.714844 132.132812 C 165.015625 132.214844 165.144531 132.300781 165.171875 132.382812 C 165.894531 132.003906 167.828125 131.878906 168.492188 132.054688 C 168.894531 132.167969 169.308594 132.367188 169.703125 132.609375 C 169.726562 132.605469 169.753906 132.597656 169.785156 132.59375 C 170.667969 132.480469 171.570312 132.476562 172.464844 132.566406 C 172.453125 132.453125 172.464844 132.335938 172.519531 132.214844 C 173.078125 130.914062 174.335938 129.738281 175.699219 129.335938 C 176.671875 129.046875 177.363281 130.292969 177.851562 131.171875 C 178.355469 130.363281 179.140625 129.707031 180.050781 130.246094 C 180.636719 130.585938 180.984375 131.554688 181.253906 132.140625 C 182.167969 134.152344 183.085938 134.105469 184.675781 134.984375 C 186.117188 135.785156 188.9375 136.699219 189.441406 138.523438 C 189.703125 139.472656 189.734375 140.640625 189.734375 141.617188 C 189.734375 141.585938 189.855469 141.726562 190.015625 141.921875 C 190.183594 140.871094 189.644531 139.917969 189.832031 138.898438 C 189.878906 138.59375 190.183594 138.453125 190.453125 138.425781 C 191.265625 138.324219 191.921875 139.082031 192.476562 139.578125 C 192.664062 139.753906 192.878906 139.925781 193.09375 140.109375 C 193.179688 140.046875 193.285156 140.003906 193.425781 140 C 196.203125 139.914062 196.296875 142.730469 196.203125 144.902344 C 196.125 146.570312 196.039062 148.265625 195.890625 149.929688 C 195.753906 151.40625 195.988281 152.414062 195.238281 153.753906 C 195.199219 153.816406 195.15625 153.871094 195.105469 153.917969 C 194.636719 155.335938 193.679688 156.636719 193.136719 158 C 192.617188 159.304688 192.15625 160.6875 191.296875 161.808594 C 191.253906 161.992188 191.171875 162.160156 191.019531 162.308594 C 190.679688 162.652344 189.925781 162.851562 189.46875 162.988281 C 188.738281 163.203125 188.304688 163.734375 187.621094 164.03125 C 186.070312 164.707031 184.804688 165.808594 183.324219 166.535156 C 183.570312 168.871094 183.089844 171.1875 182.648438 173.480469 C 181.902344 177.320312 180.136719 183.144531 175.660156 184.144531 C 175.378906 184.210938 175.097656 184.273438 174.828125 184.339844 C 174.707031 185.757812 174.441406 187.101562 174.238281 188.488281 C 176.261719 188.578125 178.183594 190.6875 179.652344 191.824219 C 182.546875 194.066406 182.746094 196.808594 184.472656 199.90625 C 186.023438 202.710938 188.210938 205.023438 189.785156 207.804688 C 191.519531 210.871094 192.402344 214.222656 194.46875 217.164062 C 194.523438 217.242188 194.554688 217.316406 194.574219 217.394531 C 196.230469 219.5 198.152344 221.4375 199.816406 223.433594 C 201.542969 225.515625 203.695312 227.753906 204.023438 230.523438 C 204.164062 230.523438 204.316406 230.582031 204.4375 230.726562 C 205.074219 231.453125 205.964844 232.070312 206.453125 232.921875 C 207.078125 234.019531 207.640625 234.257812 208.644531 234.960938 C 210.355469 236.144531 211.261719 237.648438 211.878906 239.601562 Z M 161.410156 181.007812 C 161.410156 180.933594 161.519531 181.171875 161.53125 181.183594 C 161.585938 181.265625 161.644531 181.351562 161.699219 181.433594 C 161.820312 181.625 161.949219 181.816406 162.089844 182 C 162.328125 182.3125 162.539062 182.628906 162.644531 183.015625 C 162.863281 183.8125 161.621094 184.15625 161.402344 183.355469 C 161.285156 182.933594 160.910156 182.574219 160.671875 182.214844 C 160.664062 182.203125 160.660156 182.195312 160.65625 182.183594 C 159.269531 184.027344 157.851562 185.988281 156.242188 187.6875 C 159.753906 187.269531 163.632812 189.585938 166.046875 191.621094 C 168.261719 193.5 170.925781 195.785156 173.535156 197.097656 C 175.605469 198.128906 175.140625 194.976562 174.769531 194 C 174.472656 193.210938 174.121094 192.566406 173.640625 191.941406 C 173.535156 192.324219 173.417969 192.707031 173.277344 193.070312 C 172.972656 193.832031 171.726562 193.496094 172.03125 192.722656 C 173.003906 190.3125 173.296875 187.25 173.523438 184.625 C 172.273438 184.859375 171.078125 184.90625 169.738281 184.304688 C 168.09375 183.558594 165.761719 182.371094 164.574219 180.984375 C 162.980469 179.117188 162.929688 176.6875 161.710938 174.703125 C 161.738281 175.851562 161.867188 177.015625 161.667969 178.128906 C 161.5625 178.695312 161.515625 179.820312 161.316406 180.738281 C 161.371094 180.8125 161.402344 180.902344 161.410156 181.007812 Z M 144.714844 225.820312 C 144.640625 225.972656 144.527344 226.097656 144.382812 226.160156 C 144.347656 226.59375 144.289062 227.015625 144.183594 227.441406 C 144.019531 228.078125 143.636719 231.132812 143.125 232.273438 C 144.160156 231.652344 145.28125 231.136719 146.183594 230.234375 C 146.773438 229.648438 147.679688 230.5625 147.089844 231.148438 C 146.480469 231.757812 145.828125 232.523438 145.113281 233.011719 C 144.113281 233.691406 142.867188 233.765625 142.035156 234.761719 C 140.976562 236.015625 139.707031 237.78125 139.746094 239.5625 C 139.757812 240.300781 139.839844 241.113281 139.554688 241.824219 C 138.488281 244.476562 144.09375 242.707031 145.585938 242.828125 C 146.5 242.90625 147.335938 243.367188 148.226562 243.554688 C 149.855469 243.890625 151.496094 244.058594 153.15625 244.082031 C 155.320312 244.101562 157.835938 244.351562 160 243.832031 C 159.976562 243.789062 159.953125 243.75 159.9375 243.714844 C 159.421875 243.636719 158.980469 243.273438 157.933594 242.835938 C 157.039062 242.460938 156.085938 242.078125 155.277344 241.542969 C 153.839844 240.59375 152.363281 239.90625 150.734375 239.34375 C 149.597656 238.953125 150.292969 238.367188 148.179688 238.292969 C 145.890625 238.203125 143.398438 238.34375 141.117188 238.597656 C 140.289062 238.691406 140.296875 237.40625 141.117188 237.3125 C 143.738281 237.019531 146.523438 236.839844 149.15625 237.105469 C 150.605469 237.25 152.175781 238.507812 153.519531 239.039062 C 154.394531 239.386719 155.242188 239.816406 156.085938 240.277344 C 156.109375 240.246094 156.125 240.226562 156.144531 240.195312 C 155.890625 239.863281 155.730469 239.421875 155.417969 239.148438 C 155.132812 238.902344 154.8125 238.742188 154.523438 238.515625 C 153.691406 237.835938 152.925781 237.066406 151.976562 236.558594 C 151.246094 236.160156 151.894531 235.054688 152.632812 235.445312 C 153.570312 235.953125 154.308594 236.699219 155.136719 237.363281 C 155.808594 237.910156 156.34375 238.238281 156.851562 238.953125 C 157.378906 239.699219 158.074219 240.089844 158.699219 240.714844 C 158.964844 240.984375 159.132812 241.296875 159.308594 241.59375 C 159.503906 241.886719 159.703125 242.167969 160.042969 242.367188 C 160.066406 242.375 160.089844 242.386719 160.109375 242.398438 C 160.351562 242.507812 160.613281 242.59375 160.871094 242.691406 C 160.949219 242.039062 161.007812 241.402344 160.792969 240.820312 C 160.433594 239.839844 160.539062 237.855469 160.015625 237.0625 C 159.683594 236.550781 159.273438 236.066406 159.019531 235.539062 C 158.847656 235.390625 158.789062 235.175781 158.835938 234.984375 C 158.773438 234.679688 158.773438 234.367188 158.886719 234.019531 C 158.90625 233.960938 158.933594 233.902344 158.964844 233.859375 C 159.214844 232.484375 159.539062 231.113281 159.628906 229.714844 C 159.679688 228.984375 159.9375 227.828125 160.519531 227.300781 C 162.171875 225.828125 163.367188 223.195312 164.15625 220.609375 C 161.527344 218.140625 158.414062 216.078125 155.195312 214.480469 C 153.664062 213.714844 151.777344 213.316406 150.128906 213.5625 C 148.769531 213.761719 146.480469 214.492188 145.195312 215.382812 C 144.964844 216.289062 144.75 217.191406 144.71875 218.117188 C 144.699219 218.953125 144.742188 219.800781 144.589844 220.628906 C 144.363281 221.910156 144.441406 223.203125 144.453125 224.5 C 144.609375 224.421875 144.761719 224.351562 144.914062 224.269531 C 145.636719 223.859375 146.285156 224.964844 145.5625 225.382812 C 145.390625 225.480469 145.199219 225.546875 145.019531 225.640625 C 144.925781 225.683594 144.835938 225.734375 144.75 225.792969 C 144.75 225.796875 144.742188 225.804688 144.730469 225.804688 C 144.738281 225.792969 144.742188 225.78125 144.742188 225.765625 C 144.738281 225.78125 144.726562 225.804688 144.714844 225.820312 "/>
</g>
<path style=" stroke:none;fill-rule:nonzero;fill:rgb(32.939148%,32.939148%,32.939148%);fill-opacity:1;" d="M 204.539062 235.253906 C 204.980469 235.96875 203.867188 236.605469 203.429688 235.910156 C 203.300781 235.703125 203.210938 235.484375 203.082031 235.277344 C 202.636719 234.574219 203.753906 233.925781 204.191406 234.628906 C 204.320312 234.832031 204.414062 235.054688 204.539062 235.253906 "/>
<path style=" stroke:none;fill-rule:nonzero;fill:rgb(32.939148%,32.939148%,32.939148%);fill-opacity:1;" d="M 203.566406 236.6875 C 204.386719 236.675781 204.390625 237.941406 203.582031 237.964844 C 203.296875 238.144531 202.894531 238 202.730469 237.726562 C 202.542969 237.402344 202.675781 237.042969 202.960938 236.839844 C 203.140625 236.71875 203.351562 236.6875 203.566406 236.6875 "/>
<path style=" stroke:none;fill-rule:nonzero;fill:rgb(32.939148%,32.939148%,32.939148%);fill-opacity:1;" d="M 201.488281 237.261719 C 202.195312 236.820312 202.84375 237.933594 202.144531 238.375 C 201.933594 238.503906 201.6875 238.597656 201.5 238.761719 C 200.890625 239.316406 199.980469 238.414062 200.59375 237.855469 C 200.863281 237.601562 201.179688 237.457031 201.488281 237.261719 "/>
<path style=" stroke:none;fill-rule:nonzero;fill:rgb(32.939148%,32.939148%,32.939148%);fill-opacity:1;" d="M 200.835938 226.804688 C 201.027344 227.128906 200.886719 227.476562 200.605469 227.683594 C 200.535156 227.734375 200.460938 227.769531 200.394531 227.824219 C 200.113281 228.035156 199.675781 227.871094 199.515625 227.59375 C 199.320312 227.269531 199.464844 226.921875 199.746094 226.71875 C 199.8125 226.664062 199.886719 226.628906 199.949219 226.574219 C 200.238281 226.363281 200.671875 226.523438 200.835938 226.804688 "/>
<path style=" stroke:none;fill-rule:nonzero;fill:rgb(32.939148%,32.939148%,32.939148%);fill-opacity:1;" d="M 199.253906 230.558594 C 199.960938 230.125 200.613281 231.238281 199.902344 231.667969 C 199.582031 231.863281 199.273438 232.074219 198.925781 232.226562 C 198.605469 232.359375 198.242188 232.328125 198.042969 232 C 197.886719 231.722656 197.953125 231.253906 198.269531 231.113281 C 198.625 230.96875 198.933594 230.75 199.253906 230.558594 "/>
<path style=" stroke:none;fill-rule:nonzero;fill:rgb(32.939148%,32.939148%,32.939148%);fill-opacity:1;" d="M 197.902344 227.1875 C 198.25 227.167969 198.546875 227.492188 198.546875 227.828125 C 198.546875 228.191406 198.25 228.457031 197.902344 228.472656 C 197.761719 228.476562 197.632812 228.589844 197.527344 228.660156 C 196.835938 229.125 196.1875 228.007812 196.871094 227.554688 C 197.199219 227.34375 197.511719 227.207031 197.902344 227.1875 "/>
<path style=" stroke:none;fill-rule:nonzero;fill:rgb(32.939148%,32.939148%,32.939148%);fill-opacity:1;" d="M 196.105469 232.511719 C 196.84375 232.121094 197.488281 233.234375 196.753906 233.625 C 196.488281 233.765625 196.257812 233.972656 195.988281 234.109375 C 195.257812 234.5 194.609375 233.394531 195.335938 233.003906 C 195.609375 232.859375 195.835938 232.65625 196.105469 232.511719 "/>
<path style=" stroke:none;fill-rule:nonzero;fill:rgb(32.939148%,32.939148%,32.939148%);fill-opacity:1;" d="M 195.699219 228.351562 C 195.925781 228.578125 195.972656 229.046875 195.699219 229.257812 C 195.433594 229.46875 195.164062 229.59375 194.855469 229.722656 C 194.855469 229.722656 194.855469 229.722656 194.84375 229.726562 C 194.835938 229.726562 194.832031 229.734375 194.824219 229.734375 C 194.832031 229.734375 194.832031 229.726562 194.835938 229.734375 C 194.804688 229.75 194.738281 229.777344 194.738281 229.777344 C 194.683594 229.800781 194.636719 229.828125 194.589844 229.855469 C 194.585938 229.867188 194.554688 229.894531 194.53125 229.917969 C 194.53125 229.9375 194.46875 230.035156 194.46875 230.042969 C 194.332031 230.359375 193.863281 230.429688 193.589844 230.269531 C 193.261719 230.074219 193.222656 229.710938 193.359375 229.386719 C 193.496094 229.078125 193.777344 228.820312 194.085938 228.667969 C 194.191406 228.613281 194.304688 228.574219 194.425781 228.519531 C 194.425781 228.519531 194.519531 228.480469 194.542969 228.472656 C 194.589844 228.449219 194.648438 228.425781 194.695312 228.398438 C 194.695312 228.398438 194.777344 228.351562 194.804688 228.335938 C 194.804688 228.34375 194.792969 228.34375 194.789062 228.351562 C 195.066406 228.132812 195.425781 228.078125 195.699219 228.351562 "/>
<path style=" stroke:none;fill-rule:nonzero;fill:rgb(32.939148%,32.939148%,32.939148%);fill-opacity:1;" d="M 196.027344 223.496094 C 196.027344 223.824219 195.730469 224.167969 195.386719 224.140625 C 195.238281 224.128906 195.089844 224.078125 194.960938 224.066406 C 194.613281 224.039062 194.316406 223.796875 194.316406 223.425781 C 194.316406 223.097656 194.613281 222.753906 194.960938 222.78125 C 195.105469 222.800781 195.257812 222.839844 195.386719 222.851562 C 195.730469 222.882812 196.027344 223.121094 196.027344 223.496094 "/>
<path style=" stroke:none;fill-rule:nonzero;fill:rgb(32.939148%,32.939148%,32.939148%);fill-opacity:1;" d="M 193.667969 222.390625 C 194.457031 222.625 194.121094 223.867188 193.320312 223.625 C 192.863281 223.484375 192.132812 223.429688 192.035156 222.832031 C 191.980469 222.484375 192.121094 222.136719 192.484375 222.039062 C 192.722656 221.96875 193.019531 222.066406 193.175781 222.265625 C 193.214844 222.277344 193.253906 222.289062 193.292969 222.300781 C 193.414062 222.328125 193.542969 222.351562 193.667969 222.390625 "/>
<path style=" stroke:none;fill-rule:nonzero;fill:rgb(32.939148%,32.939148%,32.939148%);fill-opacity:1;" d="M 191.113281 221.421875 C 191.476562 222.167969 190.367188 222.820312 190.003906 222.074219 C 189.652344 221.359375 189.792969 220.691406 189.515625 219.964844 C 189.136719 218.960938 188.828125 217.921875 188.539062 216.890625 C 187.964844 214.851562 187.65625 212.710938 186.859375 210.742188 C 186.550781 209.972656 187.796875 209.644531 188.101562 210.398438 C 188.894531 212.367188 189.253906 214.492188 189.78125 216.546875 C 189.984375 217.367188 190.226562 218.203125 190.523438 218.992188 C 190.792969 219.726562 190.78125 220.746094 191.113281 221.421875 "/>
<path style=" stroke:none;fill-rule:nonzero;fill:rgb(32.939148%,32.939148%,32.939148%);fill-opacity:1;" d="M 184.261719 223.917969 L 184.261719 224.476562 C 184.261719 224.960938 182.988281 225.023438 182.664062 224.660156 C 182.640625 224.871094 182.601562 225.070312 182.511719 225.289062 C 182.371094 225.609375 181.902344 225.675781 181.628906 225.519531 C 181.300781 225.324219 181.265625 224.960938 181.398438 224.636719 C 181.449219 224.519531 181.386719 224.164062 181.382812 223.984375 C 181.371094 223.234375 182.417969 223.175781 182.625 223.789062 C 182.863281 223.363281 184.261719 223.410156 184.261719 223.917969 "/>
<path style=" stroke:none;fill-rule:nonzero;fill:rgb(32.939148%,32.939148%,32.939148%);fill-opacity:1;" d="M 181.609375 220.039062 C 181.867188 220.246094 181.996094 220.570312 181.816406 220.886719 C 181.652344 221.160156 181.207031 221.335938 180.925781 221.113281 C 180.726562 220.960938 180.59375 220.84375 180.5 220.597656 C 180.363281 220.265625 180.636719 219.886719 180.945312 219.800781 C 181.21875 219.726562 181.453125 219.835938 181.609375 220.039062 "/>
<path style=" stroke:none;fill-rule:nonzero;fill:rgb(32.939148%,32.939148%,32.939148%);fill-opacity:1;" d="M 180.871094 230 C 181.679688 229.800781 182.019531 231.042969 181.21875 231.242188 C 179.949219 231.554688 178.632812 231.722656 177.34375 231.929688 C 176.292969 232.105469 175.464844 232.824219 174.40625 232.871094 C 173.570312 232.90625 173.578125 231.625 174.40625 231.582031 C 175.027344 231.554688 175.664062 231.042969 176.257812 230.839844 C 176.753906 230.679688 177.230469 230.679688 177.734375 230.566406 C 178.773438 230.34375 179.84375 230.257812 180.871094 230 "/>
<path style=" stroke:none;fill-rule:nonzero;fill:rgb(32.939148%,32.939148%,32.939148%);fill-opacity:1;" d="M 180.90625 209.386719 C 181.464844 209.386719 181.464844 210.503906 180.90625 210.503906 C 179.785156 210.503906 179.785156 209.386719 180.90625 209.386719 "/>
<path style=" stroke:none;fill-rule:nonzero;fill:rgb(32.939148%,32.939148%,32.939148%);fill-opacity:1;" d="M 180.871094 211.234375 C 181.101562 211.496094 181.128906 211.882812 180.871094 212.144531 C 180.636719 212.378906 180.195312 212.40625 179.960938 212.144531 C 179.921875 212.097656 179.816406 211.96875 179.808594 211.96875 C 179.109375 211.53125 179.753906 210.417969 180.464844 210.855469 C 180.632812 210.960938 180.746094 211.089844 180.871094 211.234375 "/>
<path style=" stroke:none;fill-rule:nonzero;fill:rgb(32.939148%,32.939148%,32.939148%);fill-opacity:1;" d="M 180.644531 200.300781 C 180.703125 201.128906 179.417969 201.125 179.351562 200.300781 C 179.328125 199.964844 179.101562 199.636719 178.941406 199.351562 C 178.738281 198.984375 178.515625 198.625 178.320312 198.25 C 177.941406 197.519531 179.046875 196.863281 179.433594 197.601562 C 179.882812 198.460938 180.5625 199.308594 180.644531 200.300781 "/>
<path style=" stroke:none;fill-rule:nonzero;fill:rgb(32.939148%,32.939148%,32.939148%);fill-opacity:1;" d="M 180.171875 221.15625 C 180.769531 221.734375 179.855469 222.648438 179.261719 222.066406 C 179.253906 222.050781 179.234375 222.039062 179.222656 222.027344 C 179.210938 222.019531 179.207031 222.019531 179.195312 222.019531 C 178.847656 221.964844 178.660156 221.535156 178.75 221.226562 C 178.847656 220.863281 179.195312 220.730469 179.539062 220.78125 C 179.785156 220.820312 180 220.980469 180.171875 221.15625 "/>
<path style=" stroke:none;fill-rule:nonzero;fill:rgb(32.939148%,32.939148%,32.939148%);fill-opacity:1;" d="M 179.460938 225.105469 C 180.1875 224.703125 180.839844 225.816406 180.113281 226.21875 C 179.496094 226.558594 178.855469 226.855469 178.191406 227.097656 C 177.835938 227.226562 177.515625 227.453125 177.140625 227.542969 C 176.800781 227.625 176.453125 227.648438 176.109375 227.75 C 175.3125 227.984375 174.976562 226.746094 175.769531 226.507812 C 176.097656 226.414062 176.480469 226.414062 176.800781 226.300781 C 177.082031 226.207031 177.316406 226.050781 177.589844 225.949219 C 178.238281 225.714844 178.859375 225.441406 179.460938 225.105469 "/>
<path style=" stroke:none;fill-rule:nonzero;fill:rgb(32.939148%,32.939148%,32.939148%);fill-opacity:1;" d="M 179.539062 212.425781 C 180.136719 213.003906 179.222656 213.917969 178.632812 213.332031 C 178.542969 213.246094 178.433594 213.222656 178.601562 213.238281 C 178.25 213.210938 177.953125 212.972656 177.953125 212.601562 C 177.953125 212.273438 178.25 211.921875 178.601562 211.957031 C 178.992188 211.992188 179.269531 212.144531 179.539062 212.425781 "/>
<path style=" stroke:none;fill-rule:nonzero;fill:rgb(32.939148%,32.939148%,32.939148%);fill-opacity:1;" d="M 179.429688 228.632812 C 179.515625 228.941406 179.363281 229.210938 179.109375 229.351562 C 179.023438 229.417969 178.941406 229.457031 178.84375 229.492188 C 178.503906 229.609375 178.136719 229.363281 178.046875 229.046875 C 177.964844 228.742188 178.117188 228.472656 178.367188 228.328125 C 178.449219 228.269531 178.535156 228.226562 178.632812 228.1875 C 178.972656 228.070312 179.339844 228.316406 179.429688 228.632812 "/>
<path style=" stroke:none;fill-rule:nonzero;fill:rgb(32.939148%,32.939148%,32.939148%);fill-opacity:1;" d="M 178.070312 213.515625 C 178.398438 213.632812 178.621094 213.953125 178.515625 214.308594 C 178.433594 214.625 178.058594 214.871094 177.730469 214.753906 C 177.539062 214.691406 177.355469 214.609375 177.167969 214.542969 C 176.839844 214.433594 176.621094 214.113281 176.71875 213.753906 C 176.804688 213.4375 177.179688 213.191406 177.507812 213.308594 C 177.699219 213.367188 177.878906 213.449219 178.070312 213.515625 "/>
<path style=" stroke:none;fill-rule:nonzero;fill:rgb(32.939148%,32.939148%,32.939148%);fill-opacity:1;" d="M 178.421875 222.414062 C 178.652344 222.683594 178.683594 223.058594 178.421875 223.320312 C 178.191406 223.550781 177.738281 223.589844 177.515625 223.320312 C 177.414062 223.203125 177.34375 223.097656 177.273438 222.964844 C 177.261719 222.941406 177.246094 222.917969 177.234375 222.886719 C 177 222.792969 176.835938 222.597656 176.835938 222.308594 C 176.835938 221.988281 177.128906 221.628906 177.484375 221.664062 C 177.824219 221.703125 178.0625 221.828125 178.265625 222.109375 C 178.316406 222.179688 178.355469 222.246094 178.386719 222.320312 C 178.40625 222.355469 178.535156 222.546875 178.421875 222.414062 "/>
<path style=" stroke:none;fill-rule:nonzero;fill:rgb(32.939148%,32.939148%,32.939148%);fill-opacity:1;" d="M 176.378906 214.714844 C 176.410156 214.726562 176.496094 214.796875 176.496094 214.796875 C 176.558594 214.839844 176.621094 214.890625 176.675781 214.941406 C 176.945312 215.164062 176.90625 215.617188 176.675781 215.84375 C 176.421875 216.101562 176.050781 216.074219 175.78125 215.855469 C 175.816406 215.890625 175.660156 215.773438 175.664062 215.78125 C 175.601562 215.734375 175.542969 215.6875 175.484375 215.640625 C 175.214844 215.410156 175.253906 214.960938 175.484375 214.726562 C 175.742188 214.46875 176.105469 214.503906 176.375 214.710938 C 176.375 214.710938 176.378906 214.710938 176.378906 214.714844 "/>
<path style=" stroke:none;fill-rule:nonzero;fill:rgb(32.939148%,32.939148%,32.939148%);fill-opacity:1;" d="M 175.367188 223.867188 C 175.359375 223.867188 175.355469 223.820312 175.34375 223.808594 C 174.789062 223.203125 175.695312 222.296875 176.257812 222.90625 C 176.507812 223.179688 176.636719 223.46875 176.65625 223.847656 C 176.671875 224.195312 176.34375 224.488281 176.011719 224.488281 C 175.652344 224.488281 175.394531 224.207031 175.367188 223.867188 "/>
<path style=" stroke:none;fill-rule:nonzero;fill:rgb(32.939148%,32.939148%,32.939148%);fill-opacity:1;" d="M 176.429688 203.796875 C 177.550781 203.796875 177.550781 205.46875 176.429688 205.46875 C 176.25 205.46875 176.105469 205.429688 175.980469 205.351562 C 176.039062 205.421875 176.097656 205.488281 176.144531 205.570312 C 176.566406 206.28125 175.449219 206.933594 175.039062 206.214844 C 174.988281 206.132812 175.003906 206.148438 174.914062 206.097656 C 174.195312 205.679688 174.847656 204.574219 175.570312 204.984375 C 175.625 205.023438 175.675781 205.070312 175.730469 205.113281 C 175.414062 204.621094 175.648438 203.796875 176.429688 203.796875 "/>
<path style=" stroke:none;fill-rule:nonzero;fill:rgb(32.939148%,32.939148%,32.939148%);fill-opacity:1;" d="M 176.285156 236.710938 C 177.105469 236.835938 176.789062 238.070312 175.976562 237.949219 C 174.242188 237.695312 170.835938 236.921875 170.835938 236.921875 C 170.277344 236.921875 170.277344 235.632812 170.835938 235.632812 C 173.074219 235.632812 174.425781 236.433594 176.285156 236.710938 "/>
<path style=" stroke:none;fill-rule:nonzero;fill:rgb(32.939148%,32.939148%,32.939148%);fill-opacity:1;" d="M 176.074219 229.125 C 176.167969 229.476562 175.957031 229.808594 175.625 229.914062 C 175.355469 230 175.097656 230.066406 174.816406 230.074219 C 174.472656 230.097656 174.175781 229.773438 174.175781 229.441406 C 174.175781 229.070312 174.472656 228.8125 174.816406 228.789062 C 174.980469 228.785156 175.132812 228.722656 175.277344 228.679688 C 175.613281 228.566406 175.980469 228.800781 176.074219 229.125 "/>
<path style=" stroke:none;fill-rule:nonzero;fill:rgb(32.939148%,32.939148%,32.939148%);fill-opacity:1;" d="M 175.277344 207.042969 C 175.839844 207.648438 174.9375 208.554688 174.367188 207.953125 C 174.300781 207.882812 174.238281 207.804688 174.175781 207.730469 C 174.144531 207.691406 174.101562 207.660156 174.066406 207.625 C 173.839844 207.578125 173.644531 207.4375 173.570312 207.183594 C 173.488281 206.867188 173.675781 206.453125 174.019531 206.386719 C 174.613281 206.289062 174.914062 206.660156 175.277344 207.042969 "/>
<path style=" stroke:none;fill-rule:nonzero;fill:rgb(32.939148%,32.939148%,32.939148%);fill-opacity:1;" d="M 174.996094 216.265625 C 175.582031 216.851562 174.675781 217.765625 174.085938 217.175781 C 174.019531 217.101562 173.945312 217.035156 173.878906 216.964844 C 173.289062 216.375 174.195312 215.46875 174.789062 216.054688 C 174.859375 216.125 174.925781 216.195312 174.996094 216.265625 "/>
<path style=" stroke:none;fill-rule:nonzero;fill:rgb(32.939148%,32.939148%,32.939148%);fill-opacity:1;" d="M 174.601562 224.347656 C 175.277344 224.792969 174.636719 225.890625 173.933594 225.445312 C 173.683594 225.289062 173.5 225.0625 173.359375 224.796875 C 172.96875 224.066406 174.074219 223.417969 174.464844 224.152344 C 174.484375 224.171875 174.53125 224.273438 174.546875 224.289062 C 174.570312 224.316406 174.589844 224.339844 174.601562 224.347656 "/>
<path style=" stroke:none;fill-rule:nonzero;fill:rgb(32.939148%,32.939148%,32.939148%);fill-opacity:1;" d="M 173.949219 208.140625 C 174.273438 208.269531 174.496094 208.5625 174.394531 208.925781 C 174.308594 209.238281 173.929688 209.503906 173.597656 209.375 C 173.214844 209.222656 172.96875 209 172.726562 208.664062 C 172.523438 208.375 172.675781 207.945312 172.957031 207.78125 C 173.28125 207.59375 173.640625 207.722656 173.839844 208.011719 C 173.855469 208.035156 173.949219 208.128906 173.949219 208.140625 "/>
<path style=" stroke:none;fill-rule:nonzero;fill:rgb(32.939148%,32.939148%,32.939148%);fill-opacity:1;" d="M 173.699219 217.511719 C 174.089844 218.222656 173.042969 218.855469 172.621094 218.210938 C 172.390625 218.117188 172.21875 217.910156 172.21875 217.628906 C 172.21875 217.304688 172.515625 216.953125 172.863281 216.984375 C 173.242188 217.019531 173.515625 217.175781 173.699219 217.511719 "/>
<path style=" stroke:none;fill-rule:nonzero;fill:rgb(32.939148%,32.939148%,32.939148%);fill-opacity:1;" d="M 173.320312 210.050781 C 173.910156 210.632812 172.996094 211.542969 172.40625 210.957031 C 172.15625 210.703125 171.914062 210.441406 171.75 210.128906 C 171.359375 209.398438 172.46875 208.746094 172.863281 209.480469 C 172.980469 209.703125 173.144531 209.871094 173.320312 210.050781 "/>
<path style=" stroke:none;fill-rule:nonzero;fill:rgb(32.939148%,32.939148%,32.939148%);fill-opacity:1;" d="M 172.515625 229.503906 C 173.074219 229.503906 173.074219 230.621094 172.515625 230.621094 L 171.953125 230.621094 C 171.394531 230.621094 171.394531 229.503906 171.953125 229.503906 L 172.515625 229.503906 "/>
<path style=" stroke:none;fill-rule:nonzero;fill:rgb(32.939148%,32.939148%,32.939148%);fill-opacity:1;" d="M 171.953125 224.53125 C 173.074219 224.53125 171.953125 225.816406 171.953125 225.816406 C 171.394531 225.816406 171.394531 224.53125 171.953125 224.53125 "/>
<path style=" stroke:none;fill-rule:nonzero;fill:rgb(32.939148%,32.939148%,32.939148%);fill-opacity:1;" d="M 171.851562 238.738281 C 172.644531 238.964844 172.300781 240.207031 171.5 239.972656 C 171.101562 239.863281 170.703125 239.726562 170.277344 239.714844 C 169.449219 239.703125 169.449219 238.421875 170.277344 238.433594 C 170.820312 238.4375 171.328125 238.585938 171.851562 238.738281 "/>
<path style=" stroke:none;fill-rule:nonzero;fill:rgb(32.939148%,32.939148%,32.939148%);fill-opacity:1;" d="M 171.804688 218.507812 C 171.921875 218.835938 171.675781 219.210938 171.359375 219.292969 C 171.054688 219.375 170.78125 219.226562 170.632812 218.976562 C 170.578125 218.894531 170.535156 218.8125 170.492188 218.707031 C 170.375 218.378906 170.621094 218.003906 170.941406 217.917969 C 171.25 217.835938 171.515625 217.988281 171.664062 218.238281 C 171.726562 218.316406 171.769531 218.398438 171.804688 218.507812 "/>
<path style=" stroke:none;fill-rule:nonzero;fill:rgb(32.939148%,32.939148%,32.939148%);fill-opacity:1;" d="M 171.394531 200.441406 C 172.515625 200.441406 172.515625 201.558594 171.394531 201.558594 C 170.835938 201.558594 170.835938 200.441406 171.394531 200.441406 "/>
<path style=" stroke:none;fill-rule:nonzero;fill:rgb(32.939148%,32.939148%,32.939148%);fill-opacity:1;" d="M 171.007812 210.09375 C 171.363281 210.1875 171.527344 210.539062 171.457031 210.878906 C 171.371094 211.265625 171.25 211.636719 171.105469 212 C 170.976562 212.324219 170.679688 212.546875 170.316406 212.449219 C 170 212.363281 169.738281 211.984375 169.867188 211.660156 C 170.007812 211.296875 170.136719 210.921875 170.214844 210.539062 C 170.289062 210.199219 170.683594 210.007812 171.007812 210.09375 "/>
<path style=" stroke:none;fill-rule:nonzero;fill:rgb(32.939148%,32.939148%,32.939148%);fill-opacity:1;" d="M 171.148438 201.527344 C 171.742188 202.109375 170.832031 203.015625 170.242188 202.433594 C 170.179688 202.378906 170.105469 202.28125 170.035156 202.25 C 169.710938 202.121094 169.488281 201.824219 169.585938 201.460938 C 169.671875 201.148438 170.054688 200.878906 170.375 201.011719 C 170.679688 201.128906 170.917969 201.296875 171.148438 201.527344 "/>
<path style=" stroke:none;fill-rule:nonzero;fill:rgb(32.939148%,32.939148%,32.939148%);fill-opacity:1;" d="M 170.4375 154.542969 C 171.183594 154.1875 171.835938 155.292969 171.09375 155.65625 C 170.460938 155.960938 169.777344 156.183594 169.265625 156.675781 C 168.664062 157.246094 167.753906 156.339844 168.351562 155.765625 C 168.960938 155.183594 169.695312 154.90625 170.4375 154.542969 "/>
<path style=" stroke:none;fill-rule:nonzero;fill:rgb(32.939148%,32.939148%,32.939148%);fill-opacity:1;" d="M 170.40625 230.171875 C 170.511719 230.546875 170.28125 230.828125 169.957031 230.960938 C 169.683594 231.078125 169.398438 231.046875 169.117188 231.101562 C 168.777344 231.171875 168.425781 231.007812 168.328125 230.65625 C 168.238281 230.332031 168.429688 229.929688 168.777344 229.863281 C 169.058594 229.808594 169.351562 229.832031 169.613281 229.722656 C 169.941406 229.585938 170.320312 229.867188 170.40625 230.171875 "/>
<path style=" stroke:none;fill-rule:nonzero;fill:rgb(32.939148%,32.939148%,32.939148%);fill-opacity:1;" d="M 169.714844 151.820312 C 170.277344 151.820312 170.277344 152.933594 169.714844 152.933594 C 168.597656 152.933594 168.597656 151.820312 169.714844 151.820312 "/>
<path style=" stroke:none;fill-rule:nonzero;fill:rgb(32.939148%,32.939148%,32.939148%);fill-opacity:1;" d="M 168.800781 202.175781 C 169.410156 203.925781 169.871094 204.914062 169.871094 207.148438 C 169.871094 207.707031 168.578125 207.707031 168.578125 207.148438 C 168.578125 204.914062 168.074219 204.109375 167.5625 202.515625 C 167.015625 200.84375 165.710938 199.625 164.6875 198.25 C 164.191406 197.589844 165.308594 197.015625 165.792969 197.671875 C 166.945312 199.210938 168.15625 200.328125 168.800781 202.175781 "/>
<path style=" stroke:none;fill-rule:nonzero;fill:rgb(32.939148%,32.939148%,32.939148%);fill-opacity:1;" d="M 168.039062 221.121094 C 168.039062 220.003906 169.714844 220.003906 169.714844 221.121094 C 169.714844 221.679688 168.039062 221.679688 168.039062 221.121094 "/>
<path style=" stroke:none;fill-rule:nonzero;fill:rgb(32.939148%,32.939148%,32.939148%);fill-opacity:1;" d="M 166.851562 135.175781 C 167.679688 135.140625 167.675781 136.429688 166.851562 136.464844 C 165.097656 136.546875 163.878906 137.496094 162.328125 138.226562 C 161.207031 138.765625 160.34375 139.660156 159.472656 140.535156 C 158.886719 141.121094 157.976562 140.214844 158.558594 139.628906 C 159.140625 139.050781 159.707031 138.488281 160.285156 137.921875 C 160.902344 137.308594 161.878906 137.066406 162.628906 136.691406 C 163.300781 136.351562 163.925781 135.742188 164.636719 135.523438 C 165.347656 135.292969 166.101562 135.214844 166.851562 135.175781 "/>
<path style=" stroke:none;fill-rule:nonzero;fill:rgb(32.939148%,32.939148%,32.939148%);fill-opacity:1;" d="M 166.359375 221.679688 C 166.359375 220.5625 167.476562 220.5625 167.476562 221.679688 C 167.476562 222.800781 166.359375 222.800781 166.359375 221.679688 "/>
<path style=" stroke:none;fill-rule:nonzero;fill:rgb(32.939148%,32.939148%,32.939148%);fill-opacity:1;" d="M 165.851562 194.097656 C 166.628906 194.316406 166.285156 195.539062 165.488281 195.335938 C 165.464844 195.328125 165.308594 195.28125 165.265625 195.261719 C 165.265625 195.261719 165.273438 195.261719 165.277344 195.261719 C 165.273438 195.261719 165.261719 195.257812 165.257812 195.257812 C 164.480469 195.03125 164.820312 193.8125 165.625 194.027344 C 165.636719 194.03125 165.78125 194.078125 165.832031 194.09375 C 165.839844 194.09375 165.847656 194.097656 165.851562 194.097656 "/>
<path style=" stroke:none;fill-rule:nonzero;fill:rgb(32.939148%,32.939148%,32.939148%);fill-opacity:1;" d="M 165.566406 195.699219 C 165.886719 195.84375 165.960938 196.296875 165.792969 196.574219 C 165.605469 196.898438 165.238281 196.957031 164.914062 196.804688 C 164.785156 196.746094 164.648438 196.703125 164.507812 196.660156 C 164.179688 196.554688 163.96875 196.222656 164.0625 195.871094 C 164.148438 195.546875 164.519531 195.3125 164.855469 195.421875 C 165.097656 195.503906 165.335938 195.585938 165.566406 195.699219 "/>
<path style=" stroke:none;fill-rule:nonzero;fill:rgb(32.939148%,32.939148%,32.939148%);fill-opacity:1;" d="M 165.851562 194.097656 C 165.847656 194.097656 165.839844 194.09375 165.832031 194.09375 C 165.839844 194.09375 165.847656 194.09375 165.851562 194.097656 "/>
<path style=" stroke:none;fill-rule:nonzero;fill:rgb(32.939148%,32.939148%,32.939148%);fill-opacity:1;" d="M 164.121094 185.351562 C 164.679688 185.351562 164.679688 186.46875 164.121094 186.46875 L 163.5625 186.46875 C 163.003906 186.46875 163.003906 185.351562 163.5625 185.351562 C 164.121094 185.351562 164.121094 185.351562 164.121094 185.351562 "/>
<path style=" stroke:none;fill-rule:nonzero;fill:rgb(32.939148%,32.939148%,32.939148%);fill-opacity:1;" d="M 161.371094 200.933594 C 162.085938 201.351562 161.433594 202.464844 160.71875 202.046875 C 159.738281 201.46875 158.574219 200.875 157.449219 200.675781 C 156.136719 200.453125 154.898438 199.914062 153.558594 199.828125 C 152.738281 199.777344 152.730469 198.492188 153.558594 198.542969 C 156.179688 198.703125 159.117188 199.613281 161.371094 200.933594 "/>
<path style=" stroke:none;fill-rule:nonzero;fill:rgb(32.939148%,32.939148%,32.939148%);fill-opacity:1;" d="M 160.796875 219.832031 C 161.023438 220.101562 161.066406 220.476562 160.796875 220.734375 C 160.574219 220.96875 160.109375 221.007812 159.894531 220.734375 C 159.714844 220.515625 159.503906 220.40625 159.25 220.277344 C 158.933594 220.121094 158.851562 219.683594 159.019531 219.398438 C 159.203125 219.082031 159.589844 219.011719 159.90625 219.171875 C 160.238281 219.339844 160.554688 219.53125 160.796875 219.832031 "/>
<path style=" stroke:none;fill-rule:nonzero;fill:rgb(32.939148%,32.939148%,32.939148%);fill-opacity:1;" d="M 158.320312 225.195312 C 158.710938 224.464844 159.820312 225.117188 159.433594 225.851562 C 159.222656 226.246094 158.898438 226.628906 158.503906 226.84375 C 157.777344 227.246094 157.128906 226.136719 157.851562 225.738281 C 158.0625 225.621094 158.203125 225.417969 158.320312 225.195312 "/>
<path style=" stroke:none;fill-rule:nonzero;fill:rgb(32.939148%,32.939148%,32.939148%);fill-opacity:1;" d="M 158.753906 191.5 C 158.753906 191.835938 158.460938 192.160156 158.109375 192.144531 C 157.917969 192.132812 157.734375 192.078125 157.546875 192.070312 C 157.195312 192.054688 156.90625 191.796875 156.90625 191.433594 C 156.90625 191.089844 157.195312 190.769531 157.546875 190.785156 C 157.742188 190.796875 157.921875 190.84375 158.109375 190.855469 C 158.460938 190.875 158.753906 191.136719 158.753906 191.5 "/>
<path style=" stroke:none;fill-rule:nonzero;fill:rgb(32.939148%,32.939148%,32.939148%);fill-opacity:1;" d="M 157.296875 192.617188 C 158.027344 192.058594 158.671875 193.316406 157.945312 193.703125 C 157.621094 193.875 157.335938 193.847656 156.988281 193.835938 C 156.160156 193.800781 156.160156 192.535156 156.988281 192.566406 C 157.078125 192.570312 157.167969 192.617188 157.257812 192.617188 C 157.273438 192.617188 157.285156 192.617188 157.296875 192.617188 "/>
<path style=" stroke:none;fill-rule:nonzero;fill:rgb(32.939148%,32.939148%,32.939148%);fill-opacity:1;" d="M 157.449219 234.964844 C 158.25 234.75 158.589844 235.972656 157.8125 236.195312 C 157.804688 236.195312 157.792969 236.203125 157.789062 236.203125 C 157.792969 236.203125 157.800781 236.203125 157.800781 236.203125 C 157.757812 236.222656 157.601562 236.265625 157.582031 236.273438 C 156.78125 236.476562 156.441406 235.253906 157.21875 235.039062 C 157.226562 235.039062 157.230469 235.03125 157.234375 235.03125 C 157.285156 235.015625 157.429688 234.972656 157.449219 234.964844 "/>
<path style=" stroke:none;fill-rule:nonzero;fill:rgb(32.939148%,32.939148%,32.939148%);fill-opacity:1;" d="M 156.820312 195.148438 C 156.816406 195.15625 156.816406 195.148438 156.816406 195.148438 C 156.816406 195.144531 156.8125 195.144531 156.8125 195.144531 L 156.804688 195.144531 C 156.78125 195.136719 156.753906 195.132812 156.703125 195.136719 C 156.636719 195.136719 156.570312 195.144531 156.5 195.144531 C 156.066406 195.160156 155.730469 194.683594 155.921875 194.277344 C 156.003906 194.085938 156.230469 193.992188 156.507812 193.976562 C 157.246094 193.9375 158.292969 194.457031 157.652344 195.101562 C 157.414062 195.339844 157.078125 195.328125 156.820312 195.148438 "/>
<path style=" stroke:none;fill-rule:nonzero;fill:rgb(32.939148%,32.939148%,32.939148%);fill-opacity:1;" d="M 156.949219 223.855469 C 157.273438 223.941406 157.507812 224.3125 157.394531 224.648438 C 157.355469 224.792969 157.289062 224.941406 157.285156 225.101562 C 157.261719 225.453125 157.003906 225.746094 156.636719 225.746094 C 156.300781 225.746094 155.976562 225.453125 155.992188 225.101562 C 156.007812 224.824219 156.074219 224.570312 156.160156 224.300781 C 156.265625 223.972656 156.59375 223.761719 156.949219 223.855469 "/>
<path style=" stroke:none;fill-rule:nonzero;fill:rgb(32.939148%,32.939148%,32.939148%);fill-opacity:1;" d="M 157.234375 235.03125 C 157.230469 235.03125 157.226562 235.039062 157.21875 235.039062 C 157.226562 235.03125 157.230469 235.03125 157.234375 235.03125 "/>
<path style=" stroke:none;fill-rule:nonzero;fill:rgb(32.939148%,32.939148%,32.939148%);fill-opacity:1;" d="M 156.671875 233.636719 C 156.980469 233.71875 157.246094 234.101562 157.117188 234.429688 C 156.972656 234.808594 156.722656 235.199219 156.335938 235.367188 C 156.007812 235.507812 155.644531 235.46875 155.453125 235.136719 C 155.292969 234.867188 155.359375 234.394531 155.6875 234.257812 C 155.761719 234.226562 155.863281 234.121094 155.878906 234.082031 C 156.003906 233.757812 156.308594 233.53125 156.671875 233.636719 "/>
<path style=" stroke:none;fill-rule:nonzero;fill:rgb(32.939148%,32.939148%,32.939148%);fill-opacity:1;" d="M 157.03125 217.28125 C 157.746094 217.695312 157.105469 218.808594 156.382812 218.390625 C 156.285156 218.332031 156.199219 218.34375 156.078125 218.339844 C 155.25 218.339844 155.25 217.050781 156.078125 217.050781 C 156.425781 217.058594 156.730469 217.109375 157.03125 217.28125 "/>
<path style=" stroke:none;fill-rule:nonzero;fill:rgb(32.939148%,32.939148%,32.939148%);fill-opacity:1;" d="M 155.886719 224.683594 C 155.914062 225.515625 154.628906 225.511719 154.59375 224.683594 C 154.585938 224.453125 154.539062 224.21875 154.527344 223.984375 C 154.5 223.15625 155.785156 223.164062 155.816406 223.984375 C 155.828125 224.21875 155.875 224.453125 155.886719 224.683594 "/>
<path style=" stroke:none;fill-rule:nonzero;fill:rgb(32.939148%,32.939148%,32.939148%);fill-opacity:1;" d="M 154.433594 232.542969 C 155.023438 231.957031 155.933594 232.863281 155.34375 233.449219 C 155.074219 233.726562 154.785156 234 154.449219 234.183594 C 153.714844 234.582031 153.066406 233.46875 153.792969 233.070312 C 154.046875 232.933594 154.234375 232.742188 154.433594 232.542969 "/>
<path style=" stroke:none;fill-rule:nonzero;fill:rgb(32.939148%,32.939148%,32.939148%);fill-opacity:1;" d="M 154.878906 196.007812 C 154.980469 196.371094 154.761719 196.675781 154.429688 196.800781 C 154.128906 196.917969 153.828125 197.003906 153.539062 197.15625 C 153.28125 197.289062 153.027344 197.441406 152.773438 197.578125 C 152.03125 197.957031 151.378906 196.84375 152.117188 196.464844 C 152.453125 196.289062 152.773438 196.074219 153.125 195.921875 C 153.441406 195.785156 153.765625 195.6875 154.089844 195.5625 C 154.421875 195.433594 154.796875 195.699219 154.878906 196.007812 "/>
<path style=" stroke:none;fill-rule:nonzero;fill:rgb(32.939148%,32.939148%,32.939148%);fill-opacity:1;" d="M 153.59375 222.25 C 153.917969 222.339844 154.152344 222.707031 154.042969 223.039062 C 153.972656 223.246094 153.894531 223.457031 153.832031 223.671875 C 153.777344 223.855469 153.765625 224.042969 153.691406 224.230469 C 153.5625 224.550781 153.269531 224.777344 152.902344 224.675781 C 152.589844 224.59375 152.324219 224.210938 152.453125 223.882812 C 152.523438 223.703125 152.527344 223.507812 152.589844 223.320312 C 152.664062 223.117188 152.730469 222.90625 152.800781 222.695312 C 152.90625 222.367188 153.242188 222.148438 153.59375 222.25 "/>
<path style=" stroke:none;fill-rule:nonzero;fill:rgb(32.939148%,32.939148%,32.939148%);fill-opacity:1;" d="M 154.277344 216.789062 C 154.277344 217.101562 153.980469 217.476562 153.632812 217.433594 C 153.070312 217.359375 152.519531 217.230469 151.953125 217.21875 C 151.125 217.210938 151.125 215.925781 151.953125 215.933594 C 152.519531 215.945312 153.070312 216.074219 153.632812 216.148438 C 153.980469 216.191406 154.277344 216.40625 154.277344 216.789062 "/>
<path style=" stroke:none;fill-rule:nonzero;fill:rgb(32.939148%,32.939148%,32.939148%);fill-opacity:1;" d="M 152.246094 231.847656 C 152.453125 231.046875 153.691406 231.390625 153.480469 232.191406 C 153.433594 232.367188 153.375 232.53125 153.371094 232.71875 C 153.339844 233.542969 152.054688 233.542969 152.078125 232.71875 C 152.089844 232.414062 152.164062 232.136719 152.246094 231.847656 "/>
<path style=" stroke:none;fill-rule:nonzero;fill:rgb(32.939148%,32.939148%,32.939148%);fill-opacity:1;" d="M 150.589844 231.355469 C 151.15625 230.75 152.066406 231.664062 151.5 232.265625 C 151.421875 232.34375 151.355469 232.433594 151.316406 232.539062 C 151.191406 232.871094 150.882812 233.085938 150.519531 232.988281 C 150.210938 232.902344 149.953125 232.53125 150.074219 232.195312 C 150.199219 231.882812 150.351562 231.605469 150.589844 231.355469 "/>
<path style=" stroke:none;fill-rule:nonzero;fill:rgb(32.939148%,32.939148%,32.939148%);fill-opacity:1;" d="M 151.253906 215.535156 C 151.253906 217.769531 151.253906 223.355469 151.253906 223.355469 C 151.253906 223.917969 149.578125 223.917969 149.578125 223.355469 C 148.457031 223.355469 148.457031 221.679688 149.578125 221.679688 C 149.578125 220.160156 149.578125 218.679688 149.578125 217.320312 C 149.566406 217.328125 149.554688 217.332031 149.535156 217.335938 C 149.300781 217.421875 149.074219 217.53125 148.835938 217.617188 C 148.507812 217.734375 148.132812 217.488281 148.050781 217.167969 C 147.945312 216.8125 148.167969 216.5 148.496094 216.382812 C 148.730469 216.296875 148.957031 216.183594 149.195312 216.101562 C 149.324219 216.054688 149.453125 216.0625 149.578125 216.109375 C 149.578125 215.921875 149.578125 215.714844 149.578125 215.535156 C 149.578125 214.414062 151.253906 214.414062 151.253906 215.535156 "/>
<path style=" stroke:none;fill-rule:nonzero;fill:rgb(32.939148%,32.939148%,32.939148%);fill-opacity:1;" d="M 149.816406 225.394531 C 150.121094 225.476562 150.398438 225.855469 150.261719 226.183594 C 150.023438 226.78125 149.933594 227.367188 149.46875 227.859375 C 148.90625 228.472656 147.992188 227.558594 148.566406 226.957031 C 148.839844 226.652344 148.875 226.214844 149.027344 225.839844 C 149.15625 225.515625 149.449219 225.289062 149.816406 225.394531 "/>
<path style=" stroke:none;fill-rule:nonzero;fill:rgb(32.939148%,32.939148%,32.939148%);fill-opacity:1;" d="M 149.957031 234.40625 C 150.742188 234.65625 150.410156 235.898438 149.613281 235.640625 C 148.40625 235.253906 147.109375 235.644531 145.871094 235.664062 C 145.039062 235.679688 145.039062 234.394531 145.871094 234.378906 C 147.25 234.355469 148.605469 233.972656 149.957031 234.40625 "/>
<path style=" stroke:none;fill-rule:nonzero;fill:rgb(32.939148%,32.939148%,32.939148%);fill-opacity:1;" d="M 148.628906 230.726562 C 149.203125 230.117188 150.105469 231.03125 149.542969 231.636719 C 149.460938 231.71875 149.394531 231.804688 149.355469 231.914062 C 149.234375 232.238281 148.929688 232.460938 148.566406 232.359375 C 148.25 232.273438 147.992188 231.898438 148.113281 231.566406 C 148.238281 231.25 148.394531 230.980469 148.628906 230.726562 "/>
<path style=" stroke:none;fill-rule:nonzero;fill:rgb(32.939148%,32.939148%,32.939148%);fill-opacity:1;" d="M 146.949219 223.25 C 147.550781 222.683594 148.460938 223.585938 147.863281 224.164062 C 147.550781 224.457031 147.207031 224.660156 146.78125 224.699219 C 146.425781 224.730469 146.136719 224.378906 146.136719 224.054688 C 146.136719 223.679688 146.429688 223.445312 146.78125 223.414062 C 146.652344 223.425781 146.828125 223.355469 146.863281 223.332031 C 146.890625 223.300781 146.949219 223.25 146.949219 223.25 "/>
<path style=" stroke:none;fill-rule:nonzero;fill:rgb(32.939148%,32.939148%,32.939148%);fill-opacity:1;" d="M 146.816406 216.730469 C 147.621094 216.535156 147.964844 217.769531 147.160156 217.96875 C 146.890625 218.035156 146.707031 218.214844 146.53125 218.433594 C 146.3125 218.707031 145.851562 218.65625 145.625 218.433594 C 145.351562 218.164062 145.40625 217.796875 145.625 217.523438 C 145.921875 217.148438 146.347656 216.847656 146.816406 216.730469 "/>
<path style="fill:none;stroke-width:2.257736;stroke-linecap:butt;stroke-linejoin:miter;stroke:rgb(0%,0%,0%);stroke-opacity:1;stroke-miterlimit:4;" d="M 66.976269 67.560798 C 78.231478 67.560798 87.168978 59.680589 87.168978 46.482672 C 87.168978 33.316004 78.231478 25.435795 66.976269 25.435795 C 55.62731 25.435795 46.752309 33.316004 46.752309 46.482672 C 46.752309 59.680589 55.62731 67.560798 66.976269 67.560798 Z M 66.976269 63.618089 C 58.007518 63.618089 50.809601 57.477464 50.809601 46.482672 C 50.809601 35.550379 58.007518 29.435796 66.976269 29.435796 C 75.908561 29.435796 83.054395 35.550379 83.054395 46.482672 C 83.054395 57.477464 75.908561 63.618089 66.976269 63.618089 Z M 96.898146 66.998298 L 100.892937 66.998298 L 100.892937 21.852462 L 96.898146 21.852462 Z M 123.679397 67.58684 C 131.528356 67.58684 137.523148 61.795173 137.523148 52.743089 C 137.523148 43.748296 131.559606 37.956629 123.679397 37.956629 C 115.804397 37.956629 109.778355 43.748296 109.778355 52.743089 C 109.778355 61.795173 115.861688 67.58684 123.679397 67.58684 Z M 123.653356 64.149339 C 118.096064 64.149339 113.715855 59.711839 113.715855 52.743089 C 113.715855 45.836838 118.096064 41.42538 123.653356 41.42538 C 129.205439 41.42538 133.64294 45.836838 133.64294 52.743089 C 133.64294 59.711839 129.205439 64.149339 123.653356 64.149339 Z M 150.340857 43.691005 L 150.283566 38.545171 L 146.403357 38.545171 L 146.403357 66.998298 L 150.340857 66.998298 L 150.340857 51.33163 C 150.340857 44.805588 153.840858 42.133713 159.221066 42.133713 L 159.221066 38.253504 C 155.221066 38.310796 151.783566 40.368088 150.340857 43.691005 Z M 166.132525 33.284754 L 169.570025 33.284754 L 162.283567 24.081629 L 159.549191 26.258712 Z M 165.840858 66.998298 L 169.8044 66.998298 L 169.8044 38.545171 L 165.840858 38.545171 Z M 165.840858 66.998298 " transform="matrix(0.75,0,0,0.75,6.908427,132.680967)"/>
<path style="fill:none;stroke-width:1.716345;stroke-linecap:butt;stroke-linejoin:miter;stroke:rgb(0%,0%,0%);stroke-opacity:1;stroke-miterlimit:4;" d="M 50.589989 14.479654 L 45.048322 7.484862 L 42.975405 9.141112 L 47.975406 14.479654 Z M 59.37124 49.00049 L 62.636865 49.00049 L 51.152489 17.828613 L 47.485822 17.828613 L 36.001446 49.00049 L 39.287905 49.00049 L 42.100405 41.177572 L 56.558739 41.177572 Z M 43.131655 38.344239 L 49.319156 21.094238 L 55.527489 38.344239 Z M 79.334783 49.422365 C 85.162908 49.422365 90.12645 46.698406 90.12645 40.708822 C 90.12645 34.385905 84.402491 33.02653 79.241033 31.750488 C 75.043116 30.698405 71.334782 29.65153 71.334782 25.849446 C 71.334782 21.740071 74.975407 20.198404 78.392074 20.198404 C 82.235825 20.198404 85.631658 21.875488 86.5952 25.516113 L 89.543117 24.755696 C 88.402492 19.776529 83.824366 17.406738 78.329574 17.406738 C 73.032699 17.406738 68.204574 20.109863 68.204574 25.875488 C 68.204574 31.615072 73.032699 33.02653 78.011866 34.297364 C 82.527491 35.458822 86.9077 36.531739 86.975408 40.755697 C 87.06395 45.156739 83.173325 46.630698 79.397283 46.630698 C 74.839991 46.630698 71.334782 44.417156 70.37124 40.687989 L 67.334782 41.427572 C 68.449365 46.365073 72.918116 49.422365 79.334783 49.422365 Z M 78.819158 58.09424 C 80.027491 58.09424 81.053533 57.089032 81.053533 55.839032 C 81.053533 54.630698 80.027491 53.604657 78.819158 53.604657 C 77.610824 53.604657 76.563949 54.630698 76.563949 55.839032 C 76.563949 57.089032 77.610824 58.09424 78.819158 58.09424 Z M 109.636868 14.479654 L 104.095201 7.484862 L 102.017076 9.141112 L 107.022284 14.479654 Z M 118.418119 49.00049 L 121.678535 49.00049 L 110.19416 17.828613 L 106.532701 17.828613 L 95.048325 49.00049 L 98.329576 49.00049 L 101.147284 41.177572 L 115.605618 41.177572 Z M 102.173326 38.344239 L 108.366035 21.094238 L 114.574368 38.344239 Z M 143.183745 32.802572 C 145.642079 31.573405 147.069162 29.047363 147.069162 25.96403 C 147.069162 21.250488 143.381662 17.828613 138.19937 17.828613 L 128.970203 17.828613 L 128.970203 49.00049 L 140.85562 49.00049 C 145.839995 49.00049 149.371246 45.490073 149.371246 40.641114 C 149.371246 36.422364 146.892079 33.740072 143.183745 32.802572 Z M 144.121245 26.167155 C 144.121245 29.250488 141.928537 31.818197 139.048328 31.818197 L 131.985828 31.818197 L 131.985828 20.625488 L 138.152495 20.625488 C 141.819162 20.625488 144.121245 23.05778 144.121245 26.167155 Z M 140.38687 46.161948 L 131.985828 46.161948 L 131.985828 34.500489 L 140.032703 34.500489 C 143.829579 34.500489 146.35562 36.979655 146.35562 40.354656 C 146.35562 43.505698 143.964995 46.161948 140.38687 46.161948 Z M 158.048329 14.479654 L 160.662913 14.479654 L 165.668122 9.141112 L 163.589997 7.484862 Z M 157.824371 49.00049 L 160.928538 49.00049 L 160.928538 17.828613 L 157.824371 17.828613 Z M 157.824371 49.00049 " transform="matrix(0.75,0,0,0.75,187.705948,189.198854)"/>
</g>
</svg>
